<svg width="562" height="132" viewBox="0 0 562 132" fill="none" xmlns="http://www.w3.org/2000/svg">
<path d="M561.307 0.5L561.305 1.00195L560.82 130.617L560.818 131.115H0.5V33.8916L0.611328 33.7539L27.4082 0.685547L27.5586 0.5H561.307Z" fill="url(#paint0_linear_160_1953)" stroke="#C3CFE0"/>
<path d="M64.0877 1H27.7967L1 34.0687V60.9338" stroke="#EDC702"/>
<path d="M15.0649 130.733L1 112.852V130.733H15.0649Z" fill="#EDC702"/>
<path d="M546.355 1.00122L560.42 18.8828V1.00122H546.355Z" fill="#EDC702"/>
<path d="M497.719 130.734H534.01H560.807V70.8005" stroke="#EDC702"/>
<g filter="url(#filter0_i_160_1953)">
<path d="M38.8848 40.1195L53.0485 22.6406H129.195L128.939 91.5037L114.775 108.983H38.8848V40.1195Z" fill="url(#paint1_linear_160_1953)"/>
</g>
<path d="M72.166 82.5065H95.4994C95.3438 80.601 94.7605 78.851 93.7494 77.2565C92.7382 75.6621 91.416 74.3982 89.7827 73.4648L91.9994 69.4982C92.0771 69.3426 92.0966 69.1676 92.0577 68.9732C92.0188 68.7787 91.9021 68.6426 91.7077 68.5648C91.5521 68.4871 91.3865 68.4676 91.2107 68.5065C91.0349 68.5454 90.9089 68.6426 90.8327 68.7982L88.5577 72.8815C87.7799 72.5704 87.0021 72.3277 86.2243 72.1535C85.4466 71.9793 84.6494 71.8914 83.8327 71.8898C83.016 71.8883 82.2188 71.9762 81.441 72.1535C80.6632 72.3308 79.8855 72.5735 79.1077 72.8815L76.8327 68.7982C76.7549 68.6037 76.6289 68.5065 76.4547 68.5065C76.2805 68.5065 76.0954 68.5454 75.8994 68.6232L75.666 69.4982L77.8827 73.4648C76.2493 74.3982 74.9271 75.6621 73.916 77.2565C72.9049 78.851 72.3216 80.601 72.166 82.5065ZM78.5827 79.0065C78.2716 79.0065 77.9993 78.8898 77.766 78.6565C77.5327 78.4232 77.416 78.151 77.416 77.8398C77.416 77.5287 77.5327 77.2565 77.766 77.0232C77.9993 76.7898 78.2716 76.6732 78.5827 76.6732C78.8938 76.6732 79.166 76.7898 79.3994 77.0232C79.6327 77.2565 79.7493 77.5287 79.7493 77.8398C79.7493 78.151 79.6327 78.4232 79.3994 78.6565C79.166 78.8898 78.8938 79.0065 78.5827 79.0065ZM89.0827 79.0065C88.7716 79.0065 88.4993 78.8898 88.266 78.6565C88.0327 78.4232 87.916 78.151 87.916 77.8398C87.916 77.5287 88.0327 77.2565 88.266 77.0232C88.4993 76.7898 88.7716 76.6732 89.0827 76.6732C89.3938 76.6732 89.666 76.7898 89.8994 77.0232C90.1327 77.2565 90.2494 77.5287 90.2494 77.8398C90.2494 78.151 90.1327 78.4232 89.8994 78.6565C89.666 78.8898 89.3938 79.0065 89.0827 79.0065ZM65.166 89.5065V42.8398H88.4994L102.499 56.8398V89.5065H65.166ZM86.166 59.1732V47.5065H69.8327V84.8398H97.8327V59.1732H86.166Z" fill="white"/>
<g clip-path="url(#clip0_160_1953)">
<path d="M79.4922 54.3158L77.6315 53.2149C77.5836 53.1867 77.5291 53.1718 77.4736 53.1719C77.418 53.1719 77.3635 53.1869 77.3158 53.2152L75.455 54.3162C75.4087 54.3436 75.3702 54.3826 75.3435 54.4293C75.3168 54.4761 75.3028 54.529 75.3027 54.5829V56.7227C75.3027 56.8325 75.3607 56.9339 75.455 56.9894L77.3158 58.0904C77.3635 58.119 77.418 58.1341 77.4736 58.1341C77.5292 58.1341 77.5838 58.119 77.6315 58.0904L79.4922 56.9894C79.5386 56.962 79.577 56.923 79.6037 56.8763C79.6304 56.8295 79.6445 56.7766 79.6445 56.7227V54.5829C79.6445 54.529 79.6305 54.476 79.6038 54.4292C79.5771 54.3823 79.5386 54.3433 79.4922 54.3158ZM79.0242 56.546L77.4736 57.4633L75.923 56.546V54.7596L77.4736 53.8423L79.0242 54.7596V56.546Z" fill="white"/>
<path d="M74.3733 56.6409V53.8144L76.2961 52.6781L75.9807 52.144L73.9053 53.3706C73.8589 53.398 73.8205 53.4371 73.7938 53.4839C73.7671 53.5307 73.7531 53.5837 73.7531 53.6376V56.6409C73.5723 56.7048 73.4157 56.823 73.3046 56.9793C73.1936 57.1356 73.1336 57.3224 73.1328 57.5142C73.1328 58.0271 73.5502 58.4446 74.0632 58.4446C74.5761 58.4446 74.9936 58.0271 74.9936 57.5142C74.9928 57.3224 74.9328 57.1356 74.8217 56.9793C74.7107 56.823 74.5541 56.7048 74.3733 56.6409ZM74.0632 57.8243C73.9833 57.8207 73.9079 57.7865 73.8527 57.7287C73.7975 57.671 73.7666 57.5941 73.7666 57.5142C73.7666 57.4342 73.7975 57.3574 73.8527 57.2996C73.9079 57.2419 73.9833 57.2076 74.0632 57.2041C74.143 57.2076 74.2184 57.2419 74.2737 57.2996C74.3289 57.3574 74.3598 57.4342 74.3598 57.5142C74.3598 57.5941 74.3289 57.671 74.2737 57.7287C74.2184 57.7865 74.143 57.8207 74.0632 57.8243ZM80.886 56.5838C80.373 56.5838 79.9556 57.0012 79.9556 57.5142C79.9556 57.6237 79.9779 57.7272 80.013 57.8249L77.4746 59.3247L75.4885 58.1512L75.1731 58.6852L77.3167 59.9518C77.3645 59.9801 77.419 59.9951 77.4745 59.9951C77.5301 59.9952 77.5846 59.9803 77.6324 59.9521L80.4112 58.31C80.5507 58.3934 80.712 58.4446 80.886 58.4446C81.3989 58.4446 81.8163 58.0271 81.8163 57.5142C81.8163 57.0012 81.3989 56.5838 80.886 56.5838ZM80.886 57.8243C80.8061 57.8207 80.7307 57.7865 80.6755 57.7287C80.6202 57.671 80.5894 57.5941 80.5894 57.5142C80.5894 57.4342 80.6202 57.3574 80.6755 57.2996C80.7307 57.2419 80.8061 57.2076 80.886 57.2041C80.9658 57.2076 81.0412 57.2419 81.0965 57.2996C81.1517 57.3574 81.1825 57.4342 81.1825 57.5142C81.1825 57.5941 81.1517 57.671 81.0965 57.7287C81.0412 57.7865 80.9658 57.8207 80.886 57.8243ZM77.4746 52.5522C77.7013 52.5522 77.9063 52.4675 78.0678 52.3326L80.5758 53.8147V55.9635H81.1961V53.6376C81.1961 53.5837 81.1821 53.5307 81.1554 53.4839C81.1287 53.4371 81.0902 53.398 81.0438 53.3706L78.387 51.8007C78.3985 51.7428 78.4045 51.6832 78.405 51.6218C78.405 51.1088 77.9875 50.6914 77.4746 50.6914C76.9616 50.6914 76.5442 51.1088 76.5442 51.6218C76.5442 52.1347 76.9616 52.5522 77.4746 52.5522ZM77.4746 51.3117C77.536 51.3116 77.5961 51.3298 77.6472 51.3638C77.6983 51.3979 77.7381 51.4464 77.7616 51.5032C77.7852 51.5599 77.7913 51.6223 77.7794 51.6826C77.7674 51.7428 77.7378 51.7982 77.6944 51.8416C77.651 51.885 77.5956 51.9146 77.5354 51.9266C77.4751 51.9385 77.4127 51.9324 77.3559 51.9088C77.2992 51.8853 77.2507 51.8455 77.2166 51.7944C77.1826 51.7433 77.1644 51.6832 77.1645 51.6218C77.1645 51.4506 77.3037 51.3117 77.4746 51.3117Z" fill="white"/>
</g>
<defs>
<filter id="filter0_i_160_1953" x="38.8848" y="22.6406" width="90.3105" height="86.3438" filterUnits="userSpaceOnUse" color-interpolation-filters="sRGB">
<feFlood flood-opacity="0" result="BackgroundImageFix"/>
<feBlend mode="normal" in="SourceGraphic" in2="BackgroundImageFix" result="shape"/>
<feColorMatrix in="SourceAlpha" type="matrix" values="0 0 0 0 0 0 0 0 0 0 0 0 0 0 0 0 0 0 127 0" result="hardAlpha"/>
<feOffset/>
<feGaussianBlur stdDeviation="0.93273"/>
<feComposite in2="hardAlpha" operator="arithmetic" k2="-1" k3="1"/>
<feColorMatrix type="matrix" values="0 0 0 0 0 0 0 0 0 0 0 0 0 0 0 0 0 0 0.25 0"/>
<feBlend mode="normal" in2="shape" result="effect1_innerShadow_160_1953"/>
</filter>
<linearGradient id="paint0_linear_160_1953" x1="638.374" y1="241.73" x2="637.614" y2="-71.6324" gradientUnits="userSpaceOnUse">
<stop stop-color="#101925"/>
<stop offset="1" stop-color="#131F31"/>
</linearGradient>
<linearGradient id="paint1_linear_160_1953" x1="73.5721" y1="97.837" x2="73.5721" y2="27.6165" gradientUnits="userSpaceOnUse">
<stop stop-color="#0A1320"/>
<stop offset="1" stop-color="#040F1F"/>
</linearGradient>
<clipPath id="clip0_160_1953">
<rect width="9.92404" height="9.92404" fill="white" transform="translate(72.5117 50.3828)"/>
</clipPath>
</defs>
</svg>
