<svg width="666" height="132" viewBox="0 0 666 132" fill="none" xmlns="http://www.w3.org/2000/svg">
<path d="M665.116 0.5L665.114 1.00195L664.629 130.617L664.627 131.115H0.5V33.8916L0.611328 33.7539L27.4082 0.685547L27.5586 0.5H665.116Z" fill="url(#paint0_linear_160_2019)" stroke="#C3CFE0"/>
<path d="M64.0877 1H27.7967L1 34.0687V60.9338" stroke="#EDC702"/>
<path d="M15.0649 130.729L1 112.848V130.729H15.0649Z" fill="#EDC702"/>
<path d="M650.548 1.00122L664.613 18.8828V1.00122H650.548Z" fill="#EDC702"/>
<path d="M601.912 130.73H638.203H665V70.7966" stroke="#EDC702"/>
<g filter="url(#filter0_i_160_2019)">
<path d="M38.8828 40.1156L53.0465 22.6367H129.193L128.937 91.4998L114.773 108.979H38.8828V40.1156Z" fill="url(#paint1_linear_160_2019)"/>
</g>
<g clip-path="url(#clip0_160_2019)">
<path d="M78.0919 41.0898C75.6136 41.0891 73.1595 41.5766 70.8697 42.5246C68.58 43.4726 66.4994 44.8624 64.7469 46.6147C62.9945 48.367 61.6044 50.4474 60.6562 52.7371C59.708 55.0268 59.2202 57.4808 59.2207 59.9591C59.2199 62.4375 59.7075 64.8918 60.6556 67.1817C61.6037 69.4715 62.9937 71.5522 64.7462 73.3047C66.4987 75.0572 68.5794 76.4472 70.8693 77.3953C73.1592 78.3434 75.6135 78.831 78.0919 78.8302C82.4957 78.8302 86.5399 77.2706 89.7515 74.7437L91.4342 76.4264C91.0886 77.0977 90.9663 77.8618 91.0849 78.6075C91.2036 79.3532 91.557 80.0416 92.0938 80.5725L100.928 89.4668C102.3 90.8398 104.544 90.8398 105.917 89.4668L107.6 87.7841C108.258 87.1211 108.628 86.2245 108.628 85.2898C108.628 84.3552 108.258 83.4586 107.6 82.7956L98.7053 73.961C98.1712 73.4267 97.4787 73.0796 96.731 72.9715C95.9834 72.8633 95.2208 73 94.5572 73.361L92.8745 71.6783C95.0771 68.8988 96.4518 65.5549 96.841 62.0299C97.2302 58.5049 96.6182 54.9416 95.0751 51.7486C93.5319 48.5555 91.1202 45.8619 88.1164 43.9767C85.1125 42.0915 81.6383 41.091 78.0919 41.0898ZM78.0919 44.5745C82.1721 44.5745 86.0852 46.1953 88.9704 49.0805C91.8556 51.9657 93.4765 55.8788 93.4765 59.9591C93.4765 64.0393 91.8556 67.9525 88.9704 70.8376C86.0852 73.7228 82.1721 75.3437 78.0919 75.3437C74.0116 75.3437 70.0985 73.7228 67.2133 70.8376C64.3281 67.9525 62.7072 64.0393 62.7072 59.9591C62.7072 55.8788 64.3281 51.9657 67.2133 49.0805C70.0985 46.1953 74.0116 44.5745 78.0919 44.5745Z" fill="white"/>
<path fill-rule="evenodd" clip-rule="evenodd" d="M76.0961 49.1307C76.1942 49.4669 76.1547 49.8284 75.9862 50.1356C75.8178 50.4427 75.5342 50.6704 75.198 50.7684C73.6388 51.2265 72.2196 52.0688 71.0707 53.218C69.9217 54.3673 69.0798 55.7867 68.6222 57.346C68.5239 57.6822 68.296 57.9657 67.9887 58.134C67.6814 58.3022 67.3198 58.3415 66.9835 58.2432C66.6473 58.1449 66.3638 57.917 66.1955 57.6097C66.0273 57.3024 65.988 56.9408 66.0863 56.6046C66.6685 54.6193 67.7403 52.8123 69.2031 51.3494C70.666 49.8865 72.4731 48.8147 74.4583 48.2325C74.6248 48.184 74.7993 48.1687 74.9717 48.1875C75.1441 48.2064 75.3111 48.259 75.4632 48.3424C75.6153 48.4258 75.7495 48.5383 75.858 48.6736C75.9666 48.8088 76.0475 48.9641 76.0961 49.1307ZM79.745 49.1307C79.8431 48.7944 80.0707 48.5108 80.3779 48.3424C80.685 48.174 81.0465 48.1344 81.3828 48.2325C83.1518 48.7507 84.7821 49.6589 86.1539 50.8902C87.5257 52.1215 88.604 53.6447 89.3095 55.3476C90.015 57.0506 90.3298 58.8901 90.2307 60.7308C90.1316 62.5715 89.6212 64.3665 88.7369 65.9839C88.657 66.1419 88.5461 66.2822 88.4108 66.3965C88.2756 66.5107 88.1187 66.5966 87.9496 66.6491C87.7805 66.7015 87.6026 66.7194 87.4264 66.7017C87.2502 66.684 87.0794 66.6311 86.9241 66.5461C86.7688 66.461 86.6322 66.3456 86.5224 66.2068C86.4125 66.0679 86.3318 65.9083 86.2848 65.7376C86.2379 65.5668 86.2258 65.3884 86.2492 65.2129C86.2726 65.0374 86.3311 64.8684 86.4211 64.716C87.1157 63.4451 87.5166 62.0348 87.5944 60.5886C87.6721 59.1424 87.4248 57.6972 86.8705 56.3592C86.3162 55.0212 85.4691 53.8245 84.3914 52.857C83.3137 51.8895 82.0329 51.1758 80.6431 50.7684C80.3068 50.6704 80.0233 50.4427 79.8549 50.1356C79.6864 49.8284 79.6469 49.4669 79.745 49.1307ZM66.9844 61.8912C67.3207 61.7931 67.6822 61.8327 67.9893 62.0011C68.2965 62.1695 68.5241 62.4531 68.6222 62.7894C69.0298 64.179 69.7436 65.4596 70.7112 66.5371C71.6788 67.6146 72.8755 68.4615 74.2135 69.0156C75.5515 69.5697 76.9966 69.8169 78.4427 69.739C79.8888 69.6612 81.299 69.2602 82.5697 68.5656C82.877 68.3975 83.2386 68.3583 83.5748 68.4567C83.911 68.5551 84.1943 68.7831 84.3625 69.0904C84.5306 69.3977 84.5698 69.7593 84.4714 70.0955C84.3729 70.4317 84.145 70.715 83.8377 70.8831C82.2203 71.7674 80.4252 72.2779 78.5845 72.377C76.7439 72.476 74.9044 72.1612 73.2014 71.4557C71.4984 70.7502 69.9753 69.6719 68.7439 68.3001C67.5126 66.9284 66.6045 65.298 66.0863 63.529C65.9882 63.1927 66.0277 62.8312 66.1962 62.5241C66.3646 62.217 66.6481 61.9893 66.9844 61.8912ZM77.9205 55.6642C76.9342 55.6636 75.9763 55.9942 75.2003 56.6031C74.4243 57.2119 73.8752 58.0637 73.6411 59.0218C73.407 59.98 73.5015 60.989 73.9092 61.887C74.317 62.7851 75.0146 63.5202 75.89 63.9745C76.0438 64.0548 76.1803 64.1646 76.2917 64.2975C76.4031 64.4305 76.4872 64.5842 76.5392 64.7497C76.5912 64.9151 76.6101 65.0893 76.5948 65.2621C76.5795 65.4348 76.5303 65.6029 76.4501 65.7567C76.3698 65.9105 76.2601 66.047 76.1271 66.1584C75.9941 66.2697 75.8404 66.3538 75.675 66.4058C75.5095 66.4578 75.3354 66.4767 75.1626 66.4615C74.9898 66.4462 74.8217 66.397 74.6679 66.3167C73.5596 65.7398 72.6247 64.8784 71.9591 63.821C71.2935 62.7636 70.9211 61.5482 70.8801 60.2994C70.8392 59.0506 71.1311 57.8133 71.726 56.7146C72.3209 55.6158 73.1974 54.6951 74.2655 54.0467C75.3336 53.3984 76.5549 53.0459 77.8042 53.0252C79.0535 53.0046 80.2858 53.3166 81.3748 53.9293C82.4637 54.542 83.3701 55.4334 84.0009 56.5119C84.6318 57.5904 84.9644 58.8173 84.9647 60.0668C84.9647 60.4171 84.8256 60.753 84.5779 61.0007C84.3302 61.2484 83.9942 61.3876 83.644 61.3876C83.2937 61.3876 82.9577 61.2484 82.71 61.0007C82.4623 60.753 82.3232 60.4171 82.3232 60.0668C82.3232 58.8991 81.8593 57.7793 81.0337 56.9537C80.208 56.128 79.0882 55.6642 77.9205 55.6642ZM79.2272 59.8766C79.2057 59.702 79.1496 59.5335 79.0621 59.3809C78.9746 59.2283 78.8575 59.0948 78.7176 58.9881C78.5778 58.8814 78.4181 58.8037 78.2478 58.7595C78.0775 58.7154 77.9002 58.7057 77.7261 58.731C77.5521 58.7564 77.3848 58.8162 77.2342 58.907C77.0836 58.9979 76.9526 59.1179 76.849 59.26C76.7454 59.4022 76.6712 59.5636 76.6309 59.7348C76.5905 59.906 76.5847 60.0835 76.6138 60.257C77.0576 63.2965 79.2431 65.5419 82.214 65.7867C82.5631 65.8154 82.9093 65.7043 83.1765 65.4777C83.4437 65.2511 83.6099 64.9277 83.6387 64.5786C83.6674 64.2295 83.5562 63.8832 83.3297 63.616C83.1031 63.3489 82.7797 63.1826 82.4306 63.1539C80.8139 63.0201 79.5125 61.8313 79.2272 59.8766Z" fill="white"/>
</g>
<defs>
<filter id="filter0_i_160_2019" x="38.8828" y="22.6367" width="90.3105" height="86.3438" filterUnits="userSpaceOnUse" color-interpolation-filters="sRGB">
<feFlood flood-opacity="0" result="BackgroundImageFix"/>
<feBlend mode="normal" in="SourceGraphic" in2="BackgroundImageFix" result="shape"/>
<feColorMatrix in="SourceAlpha" type="matrix" values="0 0 0 0 0 0 0 0 0 0 0 0 0 0 0 0 0 0 127 0" result="hardAlpha"/>
<feOffset/>
<feGaussianBlur stdDeviation="0.93273"/>
<feComposite in2="hardAlpha" operator="arithmetic" k2="-1" k3="1"/>
<feColorMatrix type="matrix" values="0 0 0 0 0 0 0 0 0 0 0 0 0 0 0 0 0 0 0.25 0"/>
<feBlend mode="normal" in2="shape" result="effect1_innerShadow_160_2019"/>
</filter>
<linearGradient id="paint0_linear_160_2019" x1="638.374" y1="241.73" x2="637.614" y2="-71.6324" gradientUnits="userSpaceOnUse">
<stop stop-color="#101925"/>
<stop offset="1" stop-color="#131F31"/>
</linearGradient>
<linearGradient id="paint1_linear_160_2019" x1="73.5702" y1="97.8331" x2="73.5702" y2="27.6126" gradientUnits="userSpaceOnUse">
<stop stop-color="#0A1320"/>
<stop offset="1" stop-color="#040F1F"/>
</linearGradient>
<clipPath id="clip0_160_2019">
<rect width="50" height="50" fill="white" transform="translate(58.8613 40.7305)"/>
</clipPath>
</defs>
</svg>
