<svg width="562" height="132" viewBox="0 0 562 132" fill="none" xmlns="http://www.w3.org/2000/svg">
<path d="M561.307 0.5L561.305 1.00195L560.82 130.617L560.818 131.115H0.5V33.8916L0.611328 33.7539L27.4082 0.685547L27.5586 0.5H561.307Z" fill="url(#paint0_linear_160_1969)" stroke="#C3CFE0"/>
<path d="M64.0877 1H27.7967L1 34.0687V60.9338" stroke="#EDC702"/>
<path d="M15.0649 130.733L1 112.852V130.733H15.0649Z" fill="#EDC702"/>
<path d="M546.355 1.00122L560.42 18.8828V1.00122H546.355Z" fill="#EDC702"/>
<path d="M497.719 130.734H534.01H560.807V70.8005" stroke="#EDC702"/>
<g filter="url(#filter0_i_160_1969)">
<path d="M38.8848 40.1195L53.0485 22.6406H129.195L128.939 91.5037L114.775 108.983H38.8848V40.1195Z" fill="url(#paint1_linear_160_1969)"/>
</g>
<path d="M103.468 86.8991H64.1957C62.2433 86.8972 60.3715 86.1208 58.9909 84.7402C57.6104 83.3597 56.834 81.4879 56.832 79.5355V52.5355C56.834 50.5832 57.6104 48.7113 58.9909 47.3308C60.3715 45.9503 62.2433 45.1738 64.1957 45.1719H103.468C105.421 45.1738 107.293 45.9503 108.673 47.3308C110.054 48.7113 110.83 50.5832 110.832 52.5355V79.5355C110.83 81.4879 110.054 83.3597 108.673 84.7402C107.293 86.1208 105.421 86.8972 103.468 86.8991ZM64.1957 50.081C63.5447 50.081 62.9204 50.3396 62.46 50.7999C61.9997 51.2602 61.7411 51.8845 61.7411 52.5355V79.5355C61.7411 80.1865 61.9997 80.8108 62.46 81.2711C62.9204 81.7315 63.5447 81.9901 64.1957 81.9901H103.468C104.119 81.9901 104.744 81.7315 105.204 81.2711C105.664 80.8108 105.923 80.1865 105.923 79.5355V52.5355C105.923 51.8845 105.664 51.2602 105.204 50.7999C104.744 50.3396 104.119 50.081 103.468 50.081H64.1957Z" fill="white"/>
<path d="M94.6152 78.9844L89.9172 63.3244L87.2516 74.0753L84.0386 66.7116H83.2261L79.888 76.5298L77.0481 66.5472L75.7373 69.1662H67.6152V66.7116H74.2204L77.4334 59.348L80.0549 68.4617L81.4589 64.2571H85.5555L86.7509 66.6454L89.7061 51.9844L94.6152 71.6207L96.1861 66.7116H101.979V69.1662H97.9534L94.6152 78.9844Z" fill="white"/>
<path d="M67.6992 75.1394H70.2733V71.9219H67.6992V75.1394ZM67.6992 77.7135H70.2733V75.783H67.6992V77.7135ZM70.9168 77.7135H73.4908V74.4959H70.9168V77.7135ZM70.9168 71.9219V73.8524H73.4908V71.9219H70.9168Z" fill="white"/>
<defs>
<filter id="filter0_i_160_1969" x="38.8848" y="22.6406" width="90.3105" height="86.3438" filterUnits="userSpaceOnUse" color-interpolation-filters="sRGB">
<feFlood flood-opacity="0" result="BackgroundImageFix"/>
<feBlend mode="normal" in="SourceGraphic" in2="BackgroundImageFix" result="shape"/>
<feColorMatrix in="SourceAlpha" type="matrix" values="0 0 0 0 0 0 0 0 0 0 0 0 0 0 0 0 0 0 127 0" result="hardAlpha"/>
<feOffset/>
<feGaussianBlur stdDeviation="0.93273"/>
<feComposite in2="hardAlpha" operator="arithmetic" k2="-1" k3="1"/>
<feColorMatrix type="matrix" values="0 0 0 0 0 0 0 0 0 0 0 0 0 0 0 0 0 0 0.25 0"/>
<feBlend mode="normal" in2="shape" result="effect1_innerShadow_160_1969"/>
</filter>
<linearGradient id="paint0_linear_160_1969" x1="638.374" y1="241.73" x2="637.614" y2="-71.6324" gradientUnits="userSpaceOnUse">
<stop stop-color="#101925"/>
<stop offset="1" stop-color="#131F31"/>
</linearGradient>
<linearGradient id="paint1_linear_160_1969" x1="73.5721" y1="97.837" x2="73.5721" y2="27.6165" gradientUnits="userSpaceOnUse">
<stop stop-color="#0A1320"/>
<stop offset="1" stop-color="#040F1F"/>
</linearGradient>
</defs>
</svg>
