<svg width="666" height="132" viewBox="0 0 666 132" fill="none" xmlns="http://www.w3.org/2000/svg">
<path d="M665.116 0.5L665.114 1.00195L664.629 130.617L664.627 131.115H0.5V33.8916L0.611328 33.7539L27.4082 0.685547L27.5586 0.5H665.116Z" fill="url(#paint0_linear_160_2036)" stroke="#C3CFE0"/>
<path d="M665.116 0.5L665.114 1.00195L664.629 130.617L664.627 131.115H0.5V33.8916L0.611328 33.7539L27.4082 0.685547L27.5586 0.5H665.116Z" fill="url(#paint1_linear_160_2036)" stroke="#C3CFE0"/>
<path d="M64.0877 1H27.7967L1 34.0687V60.9338" stroke="#EDC702"/>
<path d="M15.0649 130.729L1 112.848V130.729H15.0649Z" fill="#EDC702"/>
<path d="M650.548 1.00122L664.613 18.8828V1.00122H650.548Z" fill="#EDC702"/>
<path d="M601.912 130.73H638.203H665V70.7966" stroke="#EDC702"/>
<g filter="url(#filter0_i_160_2036)">
<path d="M38.8828 40.1156L53.0465 22.6367H129.193L128.937 91.4998L114.773 108.979H38.8828V40.1156Z" fill="url(#paint2_linear_160_2036)"/>
</g>
<path d="M72.9665 85.0119C72.9665 85.7262 73.5455 86.3052 74.2598 86.3052C74.974 86.3052 75.553 85.7262 75.553 85.0119C75.553 84.2977 74.974 83.7187 74.2598 83.7187C73.5455 83.7187 72.9665 84.2977 72.9665 85.0119ZM86.3839 85.0119V85.2544H86.5239L86.5939 85.1332L86.3839 85.0119ZM87.0506 81.6172C87.0506 82.3314 87.6296 82.9104 88.3438 82.9104C89.0581 82.9104 89.6371 82.3314 89.6371 81.6172C89.6371 80.903 89.0581 80.3239 88.3438 80.3239C87.6296 80.3239 87.0506 80.903 87.0506 81.6172ZM74.2598 85.0119V85.2544H86.3839V85.0119V84.7695H74.2598V85.0119ZM86.3839 85.0119L86.5939 85.1332L88.5538 81.7384L88.3438 81.6172L88.1339 81.4959L86.1739 84.8907L86.3839 85.0119Z" fill="white"/>
<path d="M72.9665 85.0119C72.9665 85.7262 73.5455 86.3052 74.2598 86.3052C74.974 86.3052 75.553 85.7262 75.553 85.0119C75.553 84.2977 74.974 83.7187 74.2598 83.7187C73.5455 83.7187 72.9665 84.2977 72.9665 85.0119ZM86.3839 85.0119V85.2544H86.5239L86.5939 85.1332L86.3839 85.0119ZM87.0506 81.6172C87.0506 82.3314 87.6296 82.9104 88.3438 82.9104C89.0581 82.9104 89.6371 82.3314 89.6371 81.6172C89.6371 80.903 89.0581 80.3239 88.3438 80.3239C87.6296 80.3239 87.0506 80.903 87.0506 81.6172ZM74.2598 85.0119V85.2544H86.3839V85.0119V84.7695H74.2598V85.0119ZM86.3839 85.0119L86.5939 85.1332L88.5538 81.7384L88.3438 81.6172L88.1339 81.4959L86.1739 84.8907L86.3839 85.0119Z" fill="white"/>
<path d="M58.9021 76.7656C58.9021 77.4799 59.4811 78.0589 60.1953 78.0589C60.9095 78.0589 61.4886 77.4799 61.4886 76.7656C61.4886 76.0514 60.9095 75.4724 60.1953 75.4724C59.4811 75.4724 58.9021 76.0514 58.9021 76.7656ZM78.3007 76.7656C78.3007 77.4799 78.8797 78.0589 79.5939 78.0589C80.3081 78.0589 80.8871 77.4799 80.8871 76.7656C80.8871 76.0514 80.3081 75.4724 79.5939 75.4724C78.8797 75.4724 78.3007 76.0514 78.3007 76.7656ZM60.1953 76.7656V77.0081H72.3194V76.7656V76.5231H60.1953V76.7656ZM72.3194 76.7656V77.0081H79.5939V76.7656V76.5231H72.3194V76.7656Z" fill="white"/>
<path d="M53.5681 62.3398C53.5681 63.0541 54.1471 63.6331 54.8613 63.6331C55.5756 63.6331 56.1546 63.0541 56.1546 62.3398C56.1546 61.6256 55.5756 61.0466 54.8613 61.0466C54.1471 61.0466 53.5681 61.6256 53.5681 62.3398ZM60.9234 68.2807L60.7537 68.4538L60.8244 68.5231H60.9234V68.2807ZM72.9667 68.2807C72.9667 68.9949 73.5457 69.5739 74.2599 69.5739C74.9742 69.5739 75.5532 68.9949 75.5532 68.2807C75.5532 67.5664 74.9742 66.9874 74.2599 66.9874C73.5457 66.9874 72.9667 67.5664 72.9667 68.2807ZM54.8613 62.3398L54.6916 62.513L60.7537 68.4538L60.9234 68.2807L61.0931 68.1075L55.031 62.1667L54.8613 62.3398ZM60.9234 68.2807V68.5231H74.2599V68.2807V68.0382H60.9234V68.2807Z" fill="white"/>
<path d="M54.781 51.5508C54.781 52.265 55.36 52.844 56.0742 52.844C56.7885 52.844 57.3675 52.265 57.3675 51.5508C57.3675 50.8365 56.7885 50.2575 56.0742 50.2575C55.36 50.2575 54.781 50.8365 54.781 51.5508ZM62.1363 57.4916L61.9666 57.6648L62.0373 57.7341H62.1363V57.4916ZM74.1796 57.4916C74.1796 58.2058 74.7586 58.7848 75.4728 58.7848C76.187 58.7848 76.766 58.2058 76.766 57.4916C76.766 56.7774 76.187 56.1984 75.4728 56.1984C74.7586 56.1984 74.1796 56.7774 74.1796 57.4916ZM56.0742 51.5508L55.9045 51.724L61.9666 57.6648L62.1363 57.4916L62.306 57.3184L56.2439 51.3776L56.0742 51.5508ZM62.1363 57.4916V57.7341H75.4728V57.4916V57.2491H62.1363V57.4916Z" fill="white"/>
<path d="M65.2068 49.4883C65.2068 50.2025 65.7858 50.7815 66.5 50.7815C67.2142 50.7815 67.7932 50.2025 67.7932 49.4883C67.7932 48.774 67.2142 48.195 66.5 48.195C65.7858 48.195 65.2068 48.774 65.2068 49.4883ZM78.3008 49.4883C78.3008 50.2025 78.8798 50.7815 79.594 50.7815C80.3083 50.7815 80.8873 50.2025 80.8873 49.4883C80.8873 48.774 80.3083 48.195 79.594 48.195C78.8798 48.195 78.3008 48.774 78.3008 49.4883ZM66.5 49.4883V49.7308H79.594V49.4883V49.2458H66.5V49.4883Z" fill="white"/>
<path d="M107.117 73.375C106.506 73.375 105.92 73.6177 105.488 74.0497C105.056 74.4817 104.813 75.0676 104.813 75.6786C104.813 75.7661 104.83 75.8502 104.84 75.9354C102.209 78.0137 98.9521 79.141 95.5991 79.1339C92.4029 79.1339 89.4451 78.1192 87.0102 76.4065C87.3074 76.4364 87.6057 76.4583 87.9086 76.4583C92.7842 76.4583 96.7509 72.4916 96.7509 67.616H94.4473C94.4455 69.3496 93.756 71.0117 92.5302 72.2376C91.3043 73.4634 89.6422 74.1529 87.9086 74.1547C86.6666 74.1547 85.4504 73.7999 84.4032 73.1321C83.356 72.4642 82.5214 71.5111 81.9976 70.3849C81.841 70.0432 81.6978 69.6939 81.568 69.3368C82.3282 69.7088 83.1805 69.9196 84.0812 69.9196C87.2567 69.9196 89.8402 67.3361 89.8402 64.1606V61.8571H87.5366V64.1606C87.5366 66.0657 85.9863 67.616 84.0812 67.616C82.1762 67.616 80.6258 66.0657 80.6258 64.1606C80.6258 61.7246 81.1925 59.4003 82.3098 57.2545L80.2665 56.1914C78.9902 58.654 78.3234 61.3869 78.3223 64.1606C78.3223 73.6871 86.0727 81.4375 95.5991 81.4375C99.4853 81.4375 103.18 80.1475 106.201 77.7909C106.515 77.9275 106.856 77.9924 107.198 77.9808C107.54 77.9692 107.876 77.8815 108.18 77.7239C108.484 77.5664 108.749 77.343 108.956 77.0701C109.163 76.7972 109.306 76.4816 109.376 76.1463C109.445 75.8109 109.439 75.4643 109.358 75.1317C109.277 74.799 109.122 74.4886 108.906 74.2232C108.689 73.9577 108.417 73.7438 108.107 73.5971C107.798 73.4504 107.46 73.3745 107.117 73.375Z" fill="white"/>
<path d="M103.662 69.9192V72.2227H101.359V69.9192H103.662ZM96.7514 63.0084V65.312H94.4479V63.0084H96.7514ZM87.5371 58.4012V56.0977H89.8407V58.4012H87.5371Z" fill="white"/>
<path d="M95.5988 46.8828C91.7127 46.8828 88.0178 48.1728 84.9966 50.5294C84.5416 50.3323 84.0352 50.2873 83.5526 50.401C83.0699 50.5147 82.6369 50.7811 82.3178 51.1607C81.9987 51.5402 81.8105 52.0125 81.7813 52.5075C81.7521 53.0025 81.8834 53.4937 82.1557 53.9081C82.428 54.3225 82.8267 54.638 83.2926 54.8077C83.7585 54.9773 84.2667 54.9922 84.7417 54.8499C85.2167 54.7077 85.6332 54.416 85.9291 54.0181C86.2251 53.6203 86.3848 53.1376 86.3845 52.6418C86.3845 52.5542 86.3684 52.4702 86.358 52.3849C88.9892 50.3066 92.2459 49.1794 95.5988 49.1864C98.7893 49.1864 101.745 50.1977 104.177 51.9058C103.888 51.8775 103.598 51.8629 103.308 51.862C98.4322 51.862 94.4666 55.8288 94.4666 60.7043H96.7702C96.772 58.9709 97.4614 57.309 98.687 56.0832C99.9126 54.8573 101.574 54.1677 103.308 54.1656C104.46 54.1638 105.592 54.4684 106.587 55.0483C107.583 55.6282 108.407 56.4624 108.973 57.4655C109.221 57.9592 109.441 58.4675 109.633 58.9904C108.851 58.6042 107.99 58.4024 107.117 58.4007C103.941 58.4007 101.358 60.9842 101.358 64.1597V66.4633H103.661V64.1597C103.661 62.2546 105.212 60.7043 107.117 60.7043C109.022 60.7043 110.572 62.2546 110.572 64.1597C110.572 66.5957 110.005 68.92 108.888 71.0658L110.933 72.1289C112.209 69.6662 112.875 66.9333 112.876 64.1597C112.876 54.6332 105.125 46.8828 95.5988 46.8828Z" fill="white"/>
<defs>
<filter id="filter0_i_160_2036" x="38.8828" y="22.6367" width="90.3105" height="86.3438" filterUnits="userSpaceOnUse" color-interpolation-filters="sRGB">
<feFlood flood-opacity="0" result="BackgroundImageFix"/>
<feBlend mode="normal" in="SourceGraphic" in2="BackgroundImageFix" result="shape"/>
<feColorMatrix in="SourceAlpha" type="matrix" values="0 0 0 0 0 0 0 0 0 0 0 0 0 0 0 0 0 0 127 0" result="hardAlpha"/>
<feOffset/>
<feGaussianBlur stdDeviation="0.93273"/>
<feComposite in2="hardAlpha" operator="arithmetic" k2="-1" k3="1"/>
<feColorMatrix type="matrix" values="0 0 0 0 0 0 0 0 0 0 0 0 0 0 0 0 0 0 0.25 0"/>
<feBlend mode="normal" in2="shape" result="effect1_innerShadow_160_2036"/>
</filter>
<linearGradient id="paint0_linear_160_2036" x1="638.374" y1="241.73" x2="637.614" y2="-71.6324" gradientUnits="userSpaceOnUse">
<stop stop-color="#101925"/>
<stop offset="1" stop-color="#131F31"/>
</linearGradient>
<linearGradient id="paint1_linear_160_2036" x1="638.374" y1="241.73" x2="637.614" y2="-71.6324" gradientUnits="userSpaceOnUse">
<stop stop-color="#101925"/>
<stop offset="1" stop-color="#131F31"/>
</linearGradient>
<linearGradient id="paint2_linear_160_2036" x1="73.5702" y1="97.8331" x2="73.5702" y2="27.6126" gradientUnits="userSpaceOnUse">
<stop stop-color="#0A1320"/>
<stop offset="1" stop-color="#040F1F"/>
</linearGradient>
</defs>
</svg>
