<svg width="562" height="132" viewBox="0 0 562 132" fill="none" xmlns="http://www.w3.org/2000/svg">
<path d="M561.307 0.5L561.305 1.00195L560.82 130.617L560.818 131.115H0.5V33.8916L0.611328 33.7539L27.4082 0.685547L27.5586 0.5H561.307Z" fill="url(#paint0_linear_160_2002)" stroke="#C3CFE0"/>
<path d="M64.0877 1H27.7967L1 34.0687V60.9338" stroke="#EDC702"/>
<path d="M15.0649 130.733L1 112.852V130.733H15.0649Z" fill="#EDC702"/>
<path d="M546.355 1.00122L560.42 18.8828V1.00122H546.355Z" fill="#EDC702"/>
<path d="M497.719 130.734H534.01H560.807V70.8005" stroke="#EDC702"/>
<g filter="url(#filter0_i_160_2002)">
<path d="M38.8848 40.1195L53.0485 22.6406H129.195L128.939 91.5037L114.775 108.983H38.8848V40.1195Z" fill="url(#paint1_linear_160_2002)"/>
</g>
<path d="M95.4994 77.8398V82.5065C95.4994 83.1254 95.7452 83.7188 96.1828 84.1564C96.6204 84.594 97.2138 84.8398 97.8327 84.8398C98.4515 84.8398 99.045 84.594 99.4826 84.1564C99.9202 83.7188 100.166 83.1254 100.166 82.5065V47.5065H67.4993V73.1732H62.8327V45.1732C62.8327 44.5543 63.0785 43.9608 63.5161 43.5233C63.9537 43.0857 64.5472 42.8398 65.166 42.8398H102.499C103.118 42.8398 103.712 43.0857 104.149 43.5233C104.587 43.9608 104.833 44.5543 104.833 45.1732V82.5065C104.833 84.363 104.095 86.1435 102.782 87.4563C101.47 88.769 99.6892 89.5065 97.8327 89.5065H65.166C63.3095 89.5065 61.529 88.769 60.2163 87.4563C58.9035 86.1435 58.166 84.363 58.166 82.5065V77.8398H95.4994Z" fill="white"/>
<path d="M88.4545 64.9907C88.326 64.8444 88.2551 64.6564 88.2551 64.4617C88.2551 64.267 88.326 64.0789 88.4545 63.9327L89.4804 62.7785C89.5935 62.6524 89.6637 62.4937 89.681 62.3252C89.6983 62.1567 89.6617 61.9871 89.5766 61.8407L87.9736 59.0674C87.8893 58.9211 87.7611 58.8052 87.6071 58.7361C87.4531 58.667 87.2812 58.6483 87.1159 58.6827L85.6091 58.9872C85.4173 59.0269 85.2177 58.9949 85.0479 58.8975C84.8781 58.8 84.7498 58.6438 84.6873 58.4582L84.1984 56.9914C84.1446 56.8322 84.0422 56.694 83.9055 56.5962C83.7689 56.4984 83.605 56.446 83.4369 56.4464H80.2308C80.056 56.4373 79.8831 56.4856 79.7383 56.584C79.5936 56.6825 79.4851 56.8255 79.4293 56.9914L78.9804 58.4582C78.9179 58.6438 78.7897 58.8 78.6199 58.8975C78.45 58.9949 78.2504 59.0269 78.0587 58.9872L76.5117 58.6827C76.3551 58.6605 76.1954 58.6852 76.0528 58.7537C75.9101 58.8222 75.7909 58.9313 75.7102 59.0674L74.1072 61.8407C74.0199 61.9855 73.9807 62.1541 73.9951 62.3226C74.0095 62.491 74.0768 62.6506 74.1873 62.7785L75.2053 63.9327C75.3338 64.0789 75.4046 64.267 75.4046 64.4617C75.4046 64.6564 75.3338 64.8444 75.2053 64.9907L74.1873 66.1449C74.0768 66.2728 74.0095 66.4323 73.9951 66.6008C73.9807 66.7692 74.0199 66.9379 74.1072 67.0827L75.7102 69.8559C75.7945 70.0022 75.9227 70.1181 76.0767 70.1872C76.2307 70.2563 76.4026 70.275 76.5679 70.2407L78.0747 69.9361C78.2665 69.8965 78.4661 69.9284 78.6359 70.0259C78.8057 70.1233 78.934 70.2796 78.9965 70.4651L79.4854 71.9319C79.5412 72.0978 79.6497 72.2409 79.7945 72.3393C79.9392 72.4377 80.1122 72.4861 80.2869 72.4769H83.493C83.6611 72.4774 83.825 72.425 83.9616 72.3272C84.0983 72.2294 84.2007 72.0911 84.2545 71.9319L84.7434 70.4651C84.8059 70.2796 84.9342 70.1233 85.104 70.0259C85.2738 69.9284 85.4734 69.8965 85.6652 69.9361L87.1721 70.2407C87.3373 70.275 87.5092 70.2563 87.6632 70.1872C87.8172 70.1181 87.9454 70.0022 88.0297 69.8559L89.6327 67.0827C89.7178 66.9362 89.7544 66.7666 89.7371 66.5981C89.7198 66.4297 89.6496 66.271 89.5366 66.1449L88.4545 64.9907ZM87.2602 66.0647L87.9014 66.7861L86.8755 68.5655L85.9297 68.3731C85.3524 68.2551 84.7519 68.3532 84.2421 68.6487C83.7324 68.9442 83.3489 69.4166 83.1644 69.9762L82.8598 70.8739H80.8079L80.5194 69.9601C80.3349 69.4006 79.9514 68.9282 79.4417 68.6327C78.9319 68.3371 78.3314 68.2391 77.7541 68.3571L76.8083 68.5495L75.7663 66.7781L76.4075 66.0567C76.8019 65.6159 77.0199 65.0451 77.0199 64.4537C77.0199 63.8622 76.8019 63.2915 76.4075 62.8506L75.7663 62.1292L76.7923 60.3659L77.7381 60.5582C78.3154 60.6762 78.9159 60.5782 79.4256 60.2827C79.9354 59.9872 80.3189 59.5148 80.5033 58.9552L80.8079 58.0495H82.8598L83.1644 58.9632C83.3489 59.5228 83.7324 59.9952 84.2421 60.2907C84.7519 60.5862 85.3524 60.6843 85.9297 60.5662L86.8755 60.3739L87.9014 62.1533L87.2602 62.8746C86.8703 63.3145 86.655 63.8819 86.655 64.4697C86.655 65.0575 86.8703 65.6249 87.2602 66.0647ZM81.8339 61.2556C81.1998 61.2556 80.5799 61.4436 80.0527 61.7959C79.5254 62.1482 79.1145 62.6489 78.8718 63.2347C78.6292 63.8206 78.5657 64.4652 78.6894 65.0872C78.8131 65.7091 79.1184 66.2803 79.5668 66.7287C80.0152 67.1771 80.5865 67.4825 81.2084 67.6062C81.8303 67.7299 82.475 67.6664 83.0608 67.4237C83.6466 67.1811 84.1474 66.7701 84.4997 66.2429C84.852 65.7156 85.04 65.0958 85.04 64.4617C85.04 63.6114 84.7022 62.7959 84.1009 62.1946C83.4997 61.5933 82.6842 61.2556 81.8339 61.2556ZM81.8339 66.0647C81.5168 66.0647 81.2069 65.9707 80.9433 65.7946C80.6797 65.6184 80.4742 65.3681 80.3529 65.0751C80.2315 64.7822 80.1998 64.4599 80.2616 64.1489C80.3235 63.838 80.4762 63.5523 80.7004 63.3281C80.9245 63.1039 81.2102 62.9513 81.5211 62.8894C81.8321 62.8276 82.1544 62.8593 82.4473 62.9806C82.7403 63.102 82.9906 63.3074 83.1668 63.5711C83.3429 63.8347 83.4369 64.1446 83.4369 64.4617C83.4369 64.8868 83.268 65.2946 82.9674 65.5952C82.6668 65.8958 82.259 66.0647 81.8339 66.0647Z" fill="white"/>
<path d="M93.5529 55.0996C93.4901 55.0281 93.4554 54.9362 93.4554 54.841C93.4554 54.7458 93.4901 54.6539 93.5529 54.5824L94.0545 54.0181C94.1097 53.9564 94.1441 53.8789 94.1525 53.7965C94.1609 53.7141 94.1431 53.6312 94.1015 53.5596L93.3178 52.2038C93.2766 52.1323 93.2139 52.0756 93.1386 52.0418C93.0633 52.008 92.9793 51.9989 92.8985 52.0157L92.1618 52.1646C92.0681 52.184 91.9705 52.1684 91.8874 52.1207C91.8044 52.0731 91.7417 51.9967 91.7112 51.906L91.4721 51.1889C91.4458 51.111 91.3957 51.0434 91.3289 50.9956C91.2621 50.9478 91.182 50.9222 91.0999 50.9224H89.5324C89.447 50.9179 89.3624 50.9416 89.2917 50.9897C89.2209 51.0378 89.1678 51.1078 89.1406 51.1889L88.9211 51.906C88.8906 51.9967 88.8279 52.0731 88.7448 52.1207C88.6618 52.1684 88.5642 52.184 88.4705 52.1646L87.7142 52.0157C87.6376 52.0049 87.5595 52.017 87.4898 52.0504C87.4201 52.0839 87.3618 52.1373 87.3223 52.2038L86.5386 53.5596C86.496 53.6304 86.4768 53.7129 86.4838 53.7952C86.4909 53.8775 86.5238 53.9556 86.5778 54.0181L87.0755 54.5824C87.1383 54.6539 87.1729 54.7458 87.1729 54.841C87.1729 54.9362 87.1383 55.0281 87.0755 55.0996L86.5778 55.6639C86.5238 55.7264 86.4909 55.8044 86.4838 55.8868C86.4768 55.9691 86.496 56.0516 86.5386 56.1224L87.3223 57.4782C87.3635 57.5497 87.4262 57.6064 87.5015 57.6401C87.5768 57.6739 87.6608 57.6831 87.7416 57.6663L88.4783 57.5174C88.5721 57.498 88.6697 57.5136 88.7527 57.5613C88.8357 57.6089 88.8984 57.6853 88.929 57.776L89.168 58.4931C89.1953 58.5742 89.2483 58.6442 89.3191 58.6923C89.3898 58.7404 89.4744 58.764 89.5599 58.7596H91.1273C91.2094 58.7598 91.2896 58.7342 91.3564 58.6863C91.4232 58.6385 91.4733 58.5709 91.4996 58.4931L91.7386 57.776C91.7691 57.6853 91.8319 57.6089 91.9149 57.5613C91.9979 57.5136 92.0955 57.498 92.1892 57.5174L92.9259 57.6663C93.0067 57.6831 93.0907 57.6739 93.166 57.6401C93.2413 57.6064 93.304 57.5497 93.3452 57.4782L94.1289 56.1224C94.1705 56.0508 94.1884 55.9678 94.1799 55.8855C94.1715 55.8031 94.1372 55.7255 94.0819 55.6639L93.5529 55.0996ZM92.969 55.6247L93.2825 55.9774L92.7809 56.8473L92.3185 56.7532C92.0363 56.6956 91.7427 56.7435 91.4935 56.888C91.2443 57.0324 91.0568 57.2634 90.9666 57.537L90.8177 57.9758H89.8146L89.6735 57.5291C89.5833 57.2555 89.3958 57.0246 89.1466 56.8801C88.8974 56.7357 88.6038 56.6877 88.3216 56.7454L87.8592 56.8395L87.3498 55.9735L87.6633 55.6208C87.856 55.4052 87.9626 55.1262 87.9626 54.8371C87.9626 54.5479 87.856 54.2689 87.6633 54.0533L87.3498 53.7007L87.8514 52.8386L88.3137 52.9326C88.596 52.9903 88.8896 52.9424 89.1388 52.7979C89.388 52.6534 89.5755 52.4225 89.6657 52.1489L89.8146 51.7061H90.8177L90.9666 52.1528C91.0568 52.4264 91.2443 52.6574 91.4935 52.8018C91.7427 52.9463 92.0363 52.9942 92.3185 52.9366L92.7809 52.8425L93.2825 53.7124L92.969 54.0651C92.7784 54.2801 92.6732 54.5575 92.6732 54.8449C92.6732 55.1323 92.7784 55.4097 92.969 55.6247ZM90.3161 53.2736C90.0061 53.2736 89.7031 53.3655 89.4453 53.5377C89.1876 53.7099 88.9867 53.9547 88.868 54.2412C88.7494 54.5276 88.7183 54.8427 88.7788 55.1468C88.8393 55.4508 88.9886 55.7301 89.2078 55.9493C89.427 56.1685 89.7063 56.3178 90.0104 56.3783C90.3144 56.4388 90.6296 56.4077 90.916 56.2891C91.2024 56.1705 91.4472 55.9696 91.6194 55.7118C91.7916 55.454 91.8836 55.151 91.8836 54.841C91.8836 54.4253 91.7184 54.0266 91.4245 53.7326C91.1305 53.4387 90.7318 53.2736 90.3161 53.2736ZM90.3161 55.6247C90.1611 55.6247 90.0096 55.5787 89.8807 55.4926C89.7519 55.4065 89.6514 55.2841 89.5921 55.1409C89.5328 54.9977 89.5172 54.8401 89.5475 54.6881C89.5777 54.5361 89.6524 54.3964 89.762 54.2868C89.8716 54.1772 90.0112 54.1026 90.1632 54.0723C90.3153 54.0421 90.4729 54.0576 90.6161 54.1169C90.7593 54.1762 90.8817 54.2767 90.9678 54.4056C91.0539 54.5345 91.0999 54.686 91.0999 54.841C91.0999 55.0488 91.0173 55.2482 90.8703 55.3952C90.7233 55.5421 90.524 55.6247 90.3161 55.6247Z" fill="white"/>
<defs>
<filter id="filter0_i_160_2002" x="38.8848" y="22.6406" width="90.3105" height="86.3438" filterUnits="userSpaceOnUse" color-interpolation-filters="sRGB">
<feFlood flood-opacity="0" result="BackgroundImageFix"/>
<feBlend mode="normal" in="SourceGraphic" in2="BackgroundImageFix" result="shape"/>
<feColorMatrix in="SourceAlpha" type="matrix" values="0 0 0 0 0 0 0 0 0 0 0 0 0 0 0 0 0 0 127 0" result="hardAlpha"/>
<feOffset/>
<feGaussianBlur stdDeviation="0.93273"/>
<feComposite in2="hardAlpha" operator="arithmetic" k2="-1" k3="1"/>
<feColorMatrix type="matrix" values="0 0 0 0 0 0 0 0 0 0 0 0 0 0 0 0 0 0 0.25 0"/>
<feBlend mode="normal" in2="shape" result="effect1_innerShadow_160_2002"/>
</filter>
<linearGradient id="paint0_linear_160_2002" x1="638.374" y1="241.73" x2="637.614" y2="-71.6324" gradientUnits="userSpaceOnUse">
<stop stop-color="#101925"/>
<stop offset="1" stop-color="#131F31"/>
</linearGradient>
<linearGradient id="paint1_linear_160_2002" x1="73.5721" y1="97.837" x2="73.5721" y2="27.6165" gradientUnits="userSpaceOnUse">
<stop stop-color="#0A1320"/>
<stop offset="1" stop-color="#040F1F"/>
</linearGradient>
</defs>
</svg>
