<svg width="361" height="109" viewBox="0 0 361 109" fill="none" xmlns="http://www.w3.org/2000/svg">
<path d="M12.5 0H348.438L360.938 12.5V87.5L348.438 100H250L242.188 92.1875H115.625L107.812 100H12.5L0 87.5V12.5L12.5 0Z" fill="url(#paint0_radial_13_224)"/>
<path d="M347.816 1.5L359.438 13.1211V86.8789L347.816 98.5H250.621L242.809 90.6875H115.004L107.191 98.5H13.1211L1.5 86.8789V13.1211L13.1211 1.5H347.816Z" stroke="#EDC702" stroke-opacity="0.7" stroke-width="3"/>
<path d="M78.125 0H281.25L273.438 9.375H85.9375L78.125 0Z" fill="#0C0C0C"/>
<path d="M360.938 25V75L353.562 67.1875V32.8125L360.938 25Z" fill="#0C0C0C"/>
<path d="M0 25V75L7.375 67.1875V32.8125L0 25Z" fill="#0C0C0C"/>
<g filter="url(#filter0_df_13_224)">
<path d="M142.188 96.875H179.696L217.204 96.875" stroke="#EDC702" stroke-width="2.52618"/>
</g>
<defs>
<filter id="filter0_df_13_224" x="132.083" y="85.5072" width="95.2258" height="22.7355" filterUnits="userSpaceOnUse" color-interpolation-filters="sRGB">
<feFlood flood-opacity="0" result="BackgroundImageFix"/>
<feColorMatrix in="SourceAlpha" type="matrix" values="0 0 0 0 0 0 0 0 0 0 0 0 0 0 0 0 0 0 127 0" result="hardAlpha"/>
<feOffset/>
<feGaussianBlur stdDeviation="5.05235"/>
<feComposite in2="hardAlpha" operator="out"/>
<feColorMatrix type="matrix" values="0 0 0 0 0.929412 0 0 0 0 0.780392 0 0 0 0 0.00784314 0 0 0 1 0"/>
<feBlend mode="normal" in2="BackgroundImageFix" result="effect1_dropShadow_13_224"/>
<feBlend mode="normal" in="SourceGraphic" in2="effect1_dropShadow_13_224" result="shape"/>
<feGaussianBlur stdDeviation="1.26309" result="effect2_foregroundBlur_13_224"/>
</filter>
<radialGradient id="paint0_radial_13_224" cx="0" cy="0" r="1" gradientUnits="userSpaceOnUse" gradientTransform="translate(180.469 50) scale(180.469 50)">
<stop stop-color="#EDC702"/>
<stop offset="1" stop-color="#EDC702" stop-opacity="0.7"/>
</radialGradient>
</defs>
</svg>
