<svg width="1920" height="93" viewBox="0 0 1920 93" fill="none" xmlns="http://www.w3.org/2000/svg">
<path d="M1922.76 -12.9062L1898.57 9.85938H416.381V-12.9062H1922.76Z" fill="#111822"/>
<path d="M1498.8 89.531L1569.73 21.5605H1913.01" stroke="#475671"/>
<path d="M1484.05 -12.9062L1459.86 9.85938H176.879V-12.9062H1484.05Z" fill="#1A2433"/>
<path d="M1088.68 -12.9062L1064.49 9.85938H-44.4961V-12.9062H1088.68Z" fill="#233043"/>
<path d="M996.994 -12.9062L972.801 9.85938H352.781V-12.9062H996.994Z" fill="#2B3C54"/>
<path d="M599.717 -12.9062L575.523 9.85938H-44.4961V-12.9062H599.717Z" fill="#344865"/>
<path d="M1525.01 26.2812L1454.11 93H-898.859V26.2812H1525.01Z" fill="#344865"/>
<path d="M1464.72 26.2812L1393.81 93H-898.859V26.2812H1464.72Z" fill="#2B3C54"/>
<path d="M1395.87 26.2812L1324.97 93H-898.859V26.2812H1395.87Z" fill="#243145"/>
<path d="M1321.09 26.2803L1250.19 92.999L-898.859 93.0029V26.2842L1321.09 26.2803Z" fill="url(#paint0_linear_259_380)"/>
<path d="M1534.28 93.0034L1605.19 26.2847L3242.27 26.2812V93L1534.28 93.0034Z" fill="url(#paint1_linear_259_380)"/>
<path d="M1571.9 93.0046L1642.8 26.2859L3242.27 26.282V93.0007L1571.9 93.0046Z" fill="#52729F"/>
<path d="M1617.95 93.0049L1688.85 26.2861L3242.27 26.282V93.0007L1617.95 93.0049Z" fill="#2B3C54"/>
<path d="M1660.58 93.0046L1731.49 26.2859L3242.27 26.282V93.0008L1660.58 93.0046Z" fill="#243145"/>
<mask id="mask0_259_380" style="mask-type:alpha" maskUnits="userSpaceOnUse" x="42" y="-2" width="78" height="96">
<path d="M80.795 -1.36694L42 15.7912V41.5285C42 65.3355 58.5525 87.5982 80.795 93.0031C103.037 87.5982 119.59 65.3355 119.59 41.5285V15.7912L80.795 -1.36694Z" fill="black"/>
</mask>
<g mask="url(#mask0_259_380)">
<path d="M119.59 15.7913V41.5286C119.59 65.3355 103.037 87.5984 80.7949 93.0032C62.2378 88.4937 47.6438 72.2491 43.3164 53.1643H51.6064C52.0513 53.5917 52.664 54.169 53.4189 54.8469C55.0591 56.3198 57.3847 58.2881 60.123 60.2629C65.4581 64.1104 72.911 68.3943 80.0889 68.4153C84.3205 68.4276 88.4466 66.9668 92.1445 64.9543C95.8575 62.9336 99.2997 60.2689 102.211 57.6624C105.13 55.0488 107.573 52.4419 109.283 50.4924C110.14 49.5161 110.818 48.699 111.284 48.1223C111.517 47.8342 111.699 47.6047 111.823 47.4456C111.885 47.3664 111.933 47.3035 111.967 47.26C111.983 47.2388 111.997 47.2214 112.006 47.2092C112.01 47.2034 112.015 47.1973 112.018 47.1936C112.019 47.1922 112.021 47.1907 112.021 47.1897L112.022 47.1877L109.859 45.5471C111.884 43.947 111.984 43.8662 111.988 43.8616L111.987 43.8606L111.933 43.7922C111.899 43.7501 111.85 43.6893 111.787 43.6125C111.662 43.4586 111.479 43.237 111.244 42.9583C110.774 42.4002 110.091 41.6096 109.229 40.6643C107.507 38.777 105.053 36.2522 102.126 33.718C96.4288 28.7849 88.331 23.2666 80.1113 23.2229C73.0945 23.1858 65.6568 27.1517 60.291 30.7375C57.5393 32.5765 55.1919 34.4131 53.5332 35.7883C52.7533 36.435 52.122 36.9832 51.6689 37.385H42V15.7913L80.7949 -1.36694L119.59 15.7913ZM80.082 28.6526C86.1841 28.6849 92.9678 32.9714 98.5713 37.8235C101.295 40.1817 103.596 42.5461 105.217 44.3235C105.64 44.7874 106.016 45.2106 106.34 45.5813C106.013 45.9713 105.632 46.42 105.201 46.9114C103.591 48.7471 101.302 51.1869 98.5889 53.6165C95.8672 56.0532 92.7714 58.431 89.5488 60.1848C86.3112 61.9467 83.1019 62.9943 80.1045 62.9856C74.7642 62.97 68.5259 59.6275 63.2998 55.8586C61.1994 54.3439 59.3506 52.8254 57.9043 51.5647C58.5193 51.3563 59.18 51.1349 59.8691 50.8997C62.5633 49.9799 65.7306 48.8842 68.4912 47.8909C69.8799 52.3753 74.0592 55.633 79 55.6331C85.075 55.6331 89.9997 50.708 90 44.6331C89.9997 38.5581 85.075 33.6331 79 33.6331C73.7647 33.6331 69.3866 37.2916 68.2754 42.1907C65.2587 43.3 61.3662 44.6512 58.1152 45.761C56.3552 46.3618 54.7899 46.89 53.665 47.2678C53.1029 47.4567 52.6502 47.6082 52.3389 47.7122C52.3168 47.7195 52.295 47.7268 52.2744 47.7336H42.376C42.1804 46.1061 42.0598 44.4649 42.0186 42.8147H53.792L54.5762 42.0764L54.5811 42.0715C54.5862 42.0667 54.5955 42.0582 54.6074 42.0471C54.6319 42.0244 54.6709 41.9881 54.7227 41.9407C54.8268 41.8452 54.9852 41.7013 55.1924 41.5168C55.6082 41.1467 56.2228 40.6116 56.999 39.968C58.555 38.6779 60.7509 36.9615 63.3086 35.2522C68.5628 31.741 74.8163 28.6248 80.082 28.6526ZM42.376 47.7336C42.5959 49.564 42.911 51.3765 43.3164 53.1643H40.5918V47.7336H42.376ZM79 37.7903C82.7794 37.7903 85.8435 40.8537 85.8438 44.6331C85.8435 48.4124 82.7794 51.4768 79 51.4768C75.2206 51.4768 72.1565 48.4124 72.1562 44.6331C72.1565 40.8537 75.2206 37.7903 79 37.7903ZM109.859 45.5471L112.023 47.1868L113.293 45.512L111.989 43.8635L109.859 45.5471ZM42 41.5286C42 41.9578 42.0079 42.3865 42.0186 42.8147H40.5918V37.385H42V41.5286Z" fill="url(#paint2_linear_259_380)"/>
</g>
<path d="M170.933 69.7595C172.906 69.7595 174.424 69.2281 175.487 68.1655C176.55 67.1028 177.081 65.5848 177.081 63.6113V54.7099C177.081 53.7438 176.943 52.8813 176.667 52.1222C176.391 51.3632 175.984 50.7215 175.446 50.197C174.921 49.6588 174.28 49.2517 173.52 48.9757C172.761 48.6997 171.899 48.5617 170.933 48.5617H160.086V69.7595H170.933ZM155.842 74.0032V44.318H170.933C172.52 44.318 173.948 44.5664 175.218 45.0632C176.501 45.5462 177.592 46.2431 178.489 47.154C179.4 48.051 180.097 49.1413 180.58 50.4247C181.076 51.7082 181.325 53.1366 181.325 54.7099V63.6113C181.325 65.1846 181.076 66.6129 180.58 67.8964C180.097 69.1798 179.4 70.277 178.489 71.1878C177.592 72.0849 176.501 72.7818 175.218 73.2786C173.948 73.7617 172.52 74.0032 170.933 74.0032H155.842ZM187.721 64.3772C187.721 63.8114 187.825 63.287 188.032 62.8039C188.253 62.3071 188.543 61.8724 188.901 61.4998C189.274 61.1272 189.709 60.8373 190.205 60.6303C190.702 60.4095 191.227 60.2991 191.779 60.2991H202.295V56.0347H188.984V51.9566H202.295C202.861 51.9566 203.392 52.067 203.889 52.2878C204.386 52.4948 204.813 52.7847 205.172 53.1573C205.545 53.5161 205.835 53.9439 206.042 54.4407C206.263 54.9376 206.373 55.4689 206.373 56.0347V74.0032H202.295V70.277C202.253 70.7876 202.115 71.2706 201.881 71.7261C201.646 72.1815 201.343 72.5817 200.97 72.9267C200.611 73.2579 200.197 73.5202 199.728 73.7134C199.259 73.9066 198.762 74.0032 198.237 74.0032H191.779C191.227 74.0032 190.702 73.8997 190.205 73.6927C189.709 73.4718 189.274 73.182 188.901 72.8232C188.543 72.4506 188.253 72.0159 188.032 71.5191C187.825 71.0222 187.721 70.4909 187.721 69.9251V64.3772ZM191.779 69.9251H202.295V64.3772H191.779V69.9251ZM211.9 51.9566H217.282V45.1667H221.36V51.9566H228.606V56.0347H221.36V69.9251H228.606V74.0032H221.36C220.808 74.0032 220.284 73.8997 219.787 73.6927C219.29 73.4718 218.856 73.182 218.483 72.8232C218.11 72.4506 217.814 72.0159 217.593 71.5191C217.386 71.0222 217.282 70.4909 217.282 69.9251V56.0347H211.9V51.9566ZM235.416 64.3772C235.416 63.8114 235.52 63.287 235.727 62.8039C235.948 62.3071 236.238 61.8724 236.596 61.4998C236.969 61.1272 237.404 60.8373 237.901 60.6303C238.397 60.4095 238.922 60.2991 239.474 60.2991H249.99V56.0347H236.679V51.9566H249.99C250.556 51.9566 251.087 52.067 251.584 52.2878C252.081 52.4948 252.509 52.7847 252.867 53.1573C253.24 53.5161 253.53 53.9439 253.737 54.4407C253.958 54.9376 254.068 55.4689 254.068 56.0347V74.0032H249.99V70.277C249.949 70.7876 249.811 71.2706 249.576 71.7261C249.341 72.1815 249.038 72.5817 248.665 72.9267C248.306 73.2579 247.892 73.5202 247.423 73.7134C246.954 73.9066 246.457 74.0032 245.933 74.0032H239.474C238.922 74.0032 238.397 73.8997 237.901 73.6927C237.404 73.4718 236.969 73.182 236.596 72.8232C236.238 72.4506 235.948 72.0159 235.727 71.5191C235.52 71.0222 235.416 70.4909 235.416 69.9251V64.3772ZM239.474 69.9251H249.99V64.3772H239.474V69.9251ZM287.148 44.318L298.596 74.0032H294.352L291.723 67.1718H278.33L275.701 74.0032H271.457L282.905 44.318H287.148ZM279.944 62.9281H290.088L285.037 49.8451L279.944 62.9281ZM322.775 74.0032H318.697V56.0347H307.332V74.0032H303.274V51.9566H307.332V55.8484C307.359 55.3102 307.483 54.8065 307.704 54.3372C307.925 53.8542 308.215 53.4402 308.574 53.0952C308.946 52.7364 309.374 52.4603 309.857 52.2671C310.34 52.0601 310.858 51.9566 311.41 51.9566H318.697C319.262 51.9566 319.794 52.067 320.29 52.2878C320.787 52.4948 321.215 52.7847 321.574 53.1573C321.947 53.5161 322.236 53.9439 322.443 54.4407C322.664 54.9376 322.775 55.4689 322.775 56.0347V74.0032ZM329.565 64.3772C329.565 63.8114 329.668 63.287 329.875 62.8039C330.096 62.3071 330.386 61.8724 330.744 61.4998C331.117 61.1272 331.552 60.8373 332.049 60.6303C332.545 60.4095 333.07 60.2991 333.622 60.2991H344.138V56.0347H330.827V51.9566H344.138C344.704 51.9566 345.235 52.067 345.732 52.2878C346.229 52.4948 346.657 52.7847 347.015 53.1573C347.388 53.5161 347.678 53.9439 347.885 54.4407C348.106 54.9376 348.216 55.4689 348.216 56.0347V74.0032H344.138V70.277C344.097 70.7876 343.959 71.2706 343.724 71.7261C343.489 72.1815 343.186 72.5817 342.813 72.9267C342.454 73.2579 342.04 73.5202 341.571 73.7134C341.102 73.9066 340.605 74.0032 340.081 74.0032H333.622C333.07 74.0032 332.545 73.8997 332.049 73.6927C331.552 73.4718 331.117 73.182 330.744 72.8232C330.386 72.4506 330.096 72.0159 329.875 71.5191C329.668 71.0222 329.565 70.4909 329.565 69.9251V64.3772ZM333.622 69.9251H344.138V64.3772H333.622V69.9251ZM359.084 43.4692V74.0032H355.027V43.4692H359.084ZM367.365 82.9046L371.981 72.0159L363.328 51.9566H367.613L374.051 67.1304L380.489 51.9566H384.774L371.422 82.9046H367.365ZM387.734 51.9566H393.117V45.1667H397.195V51.9566H404.44V56.0347H397.195V69.9251H404.44V74.0032H397.195C396.643 74.0032 396.118 73.8997 395.621 73.6927C395.125 73.4718 394.69 73.182 394.317 72.8232C393.945 72.4506 393.648 72.0159 393.427 71.5191C393.22 71.0222 393.117 70.4909 393.117 69.9251V56.0347H387.734V51.9566ZM415.536 51.9566V74.0032H411.458V51.9566H415.536ZM411.251 43.4692H415.743V47.7129H411.251V43.4692ZM426.611 56.0347V69.9251H437.127V66.1989H441.205V69.9251C441.205 70.4909 441.095 71.0222 440.874 71.5191C440.667 72.0159 440.377 72.4506 440.004 72.8232C439.645 73.182 439.218 73.4718 438.721 73.6927C438.224 73.8997 437.693 74.0032 437.127 74.0032H426.611C426.059 74.0032 425.534 73.8997 425.037 73.6927C424.541 73.4718 424.106 73.182 423.733 72.8232C423.375 72.4506 423.085 72.0159 422.864 71.5191C422.657 71.0222 422.553 70.4909 422.553 69.9251V56.0347C422.553 55.4689 422.657 54.9376 422.864 54.4407C423.085 53.9439 423.375 53.5161 423.733 53.1573C424.106 52.7847 424.541 52.4948 425.037 52.2878C425.534 52.067 426.059 51.9566 426.611 51.9566H437.127C437.693 51.9566 438.224 52.067 438.721 52.2878C439.218 52.4948 439.645 52.7847 440.004 53.1573C440.377 53.5161 440.667 53.9439 440.874 54.4407C441.095 54.9376 441.205 55.4689 441.205 56.0347V59.7609H437.127V56.0347H426.611ZM461.326 69.9251V64.8119H451.659C451.093 64.8119 450.562 64.7084 450.065 64.5014C449.568 64.2806 449.133 63.9908 448.761 63.632C448.402 63.2594 448.112 62.8246 447.891 62.3278C447.684 61.831 447.581 61.2997 447.581 60.7338V56.0347C447.581 55.4689 447.684 54.9376 447.891 54.4407C448.112 53.9439 448.402 53.5161 448.761 53.1573C449.133 52.7847 449.568 52.4948 450.065 52.2878C450.562 52.067 451.093 51.9566 451.659 51.9566H464.556V56.0347H451.659V60.7338H461.326C461.892 60.7338 462.417 60.8442 462.9 61.0651C463.396 61.2721 463.831 61.5619 464.204 61.9345C464.576 62.2933 464.866 62.7211 465.073 63.218C465.294 63.7148 465.404 64.2461 465.404 64.8119V69.9251C465.404 70.4909 465.294 71.0222 465.073 71.5191C464.866 72.0159 464.576 72.4506 464.204 72.8232C463.831 73.182 463.396 73.4718 462.9 73.6927C462.417 73.8997 461.892 74.0032 461.326 74.0032H447.581V69.9251H461.326ZM484.905 74.0032V44.318H501.155C505.958 44.318 508.359 46.7262 508.359 51.5426V55.7656C508.359 60.582 505.958 62.9902 501.155 62.9902H489.148V74.0032H484.905ZM489.148 58.7465H500.927C502.059 58.7465 502.873 58.4981 503.37 58.0013C503.867 57.5045 504.115 56.6902 504.115 55.5586V51.7496C504.115 50.618 503.867 49.8037 503.37 49.3069C502.873 48.8101 502.059 48.5617 500.927 48.5617H489.148V58.7465ZM517.944 43.4692V74.0032H513.886V43.4692H517.944ZM524.733 64.3772C524.733 63.8114 524.837 63.287 525.044 62.8039C525.265 62.3071 525.555 61.8724 525.913 61.4998C526.286 61.1272 526.721 60.8373 527.218 60.6303C527.714 60.4095 528.239 60.2991 528.791 60.2991H539.307V56.0347H525.996V51.9566H539.307C539.873 51.9566 540.404 52.067 540.901 52.2878C541.398 52.4948 541.826 52.7847 542.184 53.1573C542.557 53.5161 542.847 53.9439 543.054 54.4407C543.275 54.9376 543.385 55.4689 543.385 56.0347V74.0032H539.307V70.277C539.266 70.7876 539.128 71.2706 538.893 71.7261C538.658 72.1815 538.355 72.5817 537.982 72.9267C537.623 73.2579 537.209 73.5202 536.74 73.7134C536.271 73.9066 535.774 74.0032 535.25 74.0032H528.791C528.239 74.0032 527.714 73.8997 527.218 73.6927C526.721 73.4718 526.286 73.182 525.913 72.8232C525.555 72.4506 525.265 72.0159 525.044 71.5191C524.837 71.0222 524.733 70.4909 524.733 69.9251V64.3772ZM528.791 69.9251H539.307V64.3772H528.791V69.9251ZM548.912 51.9566H554.294V45.1667H558.373V51.9566H565.618V56.0347H558.373V69.9251H565.618V74.0032H558.373C557.821 74.0032 557.296 73.8997 556.799 73.6927C556.302 73.4718 555.868 73.182 555.495 72.8232C555.123 72.4506 554.826 72.0159 554.605 71.5191C554.398 71.0222 554.294 70.4909 554.294 69.9251V56.0347H548.912V51.9566ZM580.605 47.5473V51.9566H587.851V56.0347H580.605V74.0032H576.527V56.0347H571.145V51.9566H576.527V47.5473C576.527 46.9815 576.631 46.4571 576.838 45.974C577.059 45.4772 577.355 45.0425 577.728 44.6699C578.101 44.2973 578.535 44.0074 579.032 43.8004C579.529 43.5796 580.053 43.4692 580.605 43.4692H587.851V47.5473H580.605ZM612.444 69.9251C612.444 70.4909 612.333 71.0222 612.112 71.5191C611.905 72.0159 611.616 72.4506 611.243 72.8232C610.884 73.182 610.456 73.4718 609.959 73.6927C609.476 73.8997 608.952 74.0032 608.386 74.0032H597.435C596.883 74.0032 596.359 73.8997 595.862 73.6927C595.365 73.4718 594.931 73.182 594.558 72.8232C594.199 72.4506 593.909 72.0159 593.688 71.5191C593.481 71.0222 593.378 70.4909 593.378 69.9251V56.0347C593.378 55.4689 593.481 54.9376 593.688 54.4407C593.909 53.9439 594.199 53.5161 594.558 53.1573C594.931 52.7847 595.365 52.4948 595.862 52.2878C596.359 52.067 596.883 51.9566 597.435 51.9566H608.386C608.952 51.9566 609.476 52.067 609.959 52.2878C610.456 52.4948 610.884 52.7847 611.243 53.1573C611.616 53.5161 611.905 53.9439 612.112 54.4407C612.333 54.9376 612.444 55.4689 612.444 56.0347V69.9251ZM597.435 56.0347V69.9251H608.386V56.0347H597.435ZM623.312 56.0347V74.0032H619.254V51.9566H623.312V55.8484C623.339 55.3102 623.463 54.8065 623.684 54.3372C623.905 53.8542 624.195 53.4402 624.554 53.0952C624.926 52.7364 625.354 52.4603 625.837 52.2671C626.32 52.0601 626.838 51.9566 627.39 51.9566H631.716C632.282 51.9566 632.806 52.067 633.289 52.2878C633.786 52.4948 634.221 52.7847 634.594 53.1573C634.966 53.5161 635.256 53.9439 635.463 54.4407C635.684 54.9376 635.794 55.4689 635.794 56.0347V59.7609H631.716V56.0347H623.312ZM658.338 56.0347V74.0032H654.26V56.0347H644.923V74.0032H640.866V51.9566H644.923V55.8484C644.951 55.3102 645.075 54.8065 645.296 54.3372C645.517 53.8542 645.807 53.4402 646.165 53.0952C646.538 52.7364 646.966 52.4603 647.449 52.2671C647.932 52.0601 648.449 51.9566 649.001 51.9566H654.26C654.798 51.9566 655.308 52.0601 655.791 52.2671C656.274 52.4603 656.702 52.7364 657.075 53.0952C657.447 53.4402 657.744 53.8542 657.965 54.3372C658.2 54.8065 658.324 55.3102 658.338 55.8484C658.365 55.3102 658.483 54.8065 658.69 54.3372C658.91 53.8542 659.2 53.4402 659.559 53.0952C659.932 52.7364 660.359 52.4603 660.842 52.2671C661.325 52.0601 661.843 51.9566 662.395 51.9566H667.653C668.219 51.9566 668.75 52.067 669.247 52.2878C669.744 52.4948 670.172 52.7847 670.531 53.1573C670.903 53.5161 671.193 53.9439 671.4 54.4407C671.621 54.9376 671.731 55.4689 671.731 56.0347V74.0032H667.653V56.0347H658.338Z" fill="#EDC702"/>
<path d="M175.446 50.197L174.602 51.0189L174.613 51.0298L174.624 51.0405L175.446 50.197ZM160.086 48.5617V47.384H158.908V48.5617H160.086ZM160.086 69.7595H158.908V70.9371H160.086V69.7595ZM155.842 74.0032H154.664V75.1808H155.842V74.0032ZM155.842 44.318V43.1403H154.664V44.318H155.842ZM175.218 45.0632L174.789 46.1599L174.796 46.1627L174.803 46.1654L175.218 45.0632ZM178.489 47.154L177.65 47.9803L177.656 47.9867L177.662 47.9931L178.489 47.154ZM180.58 50.4247L179.477 50.8396L179.481 50.8499L180.58 50.4247ZM180.58 67.8964L179.481 67.4712L179.477 67.4816L180.58 67.8964ZM175.218 73.2786L175.637 74.3794L175.643 74.3769L175.218 73.2786ZM170.933 69.7595V70.9371C173.117 70.9371 174.974 70.3445 176.32 68.9982L175.487 68.1655L174.654 67.3328C173.875 68.1118 172.696 68.5818 170.933 68.5818V69.7595ZM175.487 68.1655L176.32 68.9982C177.666 67.652 178.259 65.7955 178.259 63.6113H177.081H175.903C175.903 65.374 175.433 66.5537 174.654 67.3328L175.487 68.1655ZM177.081 63.6113H178.259V54.7099H177.081H175.903V63.6113H177.081ZM177.081 54.7099H178.259C178.259 53.6327 178.105 52.6303 177.774 51.7198L176.667 52.1222L175.56 52.5247C175.781 53.1322 175.903 53.8549 175.903 54.7099H177.081ZM176.667 52.1222L177.774 51.7198C177.442 50.8069 176.942 50.0108 176.268 49.3536L175.446 50.197L174.624 51.0405C175.026 51.4321 175.34 51.9195 175.56 52.5247L176.667 52.1222ZM175.446 50.197L176.289 49.3752C175.632 48.7007 174.836 48.2009 173.923 47.8689L173.52 48.9757L173.118 50.0824C173.723 50.3025 174.211 50.6169 174.602 51.0189L175.446 50.197ZM173.52 48.9757L173.923 47.8689C173.012 47.5378 172.01 47.384 170.933 47.384V48.5617V49.7393C171.788 49.7393 172.511 49.8615 173.118 50.0824L173.52 48.9757ZM170.933 48.5617V47.384H160.086V48.5617V49.7393H170.933V48.5617ZM160.086 48.5617H158.908V69.7595H160.086H161.263V48.5617H160.086ZM160.086 69.7595V70.9371H170.933V69.7595V68.5818H160.086V69.7595ZM155.842 74.0032H157.02V44.318H155.842H154.664V74.0032H155.842ZM155.842 44.318V45.4956H170.933V44.318V43.1403H155.842V44.318ZM170.933 44.318V45.4956C172.397 45.4956 173.676 45.7246 174.789 46.1599L175.218 45.0632L175.647 43.9665C174.22 43.4082 172.643 43.1403 170.933 43.1403V44.318ZM175.218 45.0632L174.803 46.1654C175.939 46.5927 176.881 47.1998 177.65 47.9803L178.489 47.154L179.328 46.3276C178.302 45.2865 177.064 44.4997 175.633 43.961L175.218 45.0632ZM178.489 47.154L177.662 47.9931C178.443 48.7618 179.05 49.704 179.477 50.8396L180.58 50.4247L181.682 50.0099C181.143 48.5786 180.356 47.3403 179.315 46.3149L178.489 47.154ZM180.58 50.4247L179.481 50.8499C179.919 51.9798 180.147 53.2614 180.147 54.7099H181.325H182.502C182.502 53.0118 182.234 51.4366 181.678 49.9996L180.58 50.4247ZM181.325 54.7099H180.147V63.6113H181.325H182.502V54.7099H181.325ZM181.325 63.6113H180.147C180.147 65.0598 179.919 66.3413 179.481 67.4713L180.58 67.8964L181.678 68.3215C182.234 66.8845 182.502 65.3094 182.502 63.6113H181.325ZM180.58 67.8964L179.477 67.4816C179.049 68.6185 178.441 69.5704 177.656 70.3551L178.489 71.1878L179.321 72.0206C180.358 70.9836 181.144 69.7412 181.682 68.3112L180.58 67.8964ZM178.489 71.1878L177.656 70.3551C176.884 71.1267 175.937 71.7377 174.793 72.1804L175.218 73.2786L175.643 74.3769C177.066 73.826 178.299 73.0431 179.321 72.0206L178.489 71.1878ZM175.218 73.2786L174.799 72.1779C173.684 72.6023 172.401 72.8255 170.933 72.8255V74.0032V75.1808C172.639 75.1808 174.213 74.921 175.637 74.3793L175.218 73.2786ZM170.933 74.0032V72.8255H155.842V74.0032V75.1808H170.933V74.0032ZM188.032 62.8039L186.956 62.3256L186.953 62.3328L186.949 62.34L188.032 62.8039ZM188.901 61.4998L188.069 60.667L188.061 60.6749L188.053 60.6829L188.901 61.4998ZM190.205 60.6303L190.658 61.7174L190.671 61.7121L190.684 61.7065L190.205 60.6303ZM202.295 60.2991V61.4768H203.473V60.2991H202.295ZM202.295 56.0347H203.473V54.8571H202.295V56.0347ZM188.984 56.0347H187.806V57.2124H188.984V56.0347ZM188.984 51.9566V50.779H187.806V51.9566H188.984ZM203.889 52.2878L203.411 53.364L203.423 53.3696L203.436 53.3749L203.889 52.2878ZM205.172 53.1573L204.324 53.9742L204.339 53.9902L204.355 54.0056L205.172 53.1573ZM206.042 54.4407L204.955 54.8937L204.96 54.9064L204.966 54.919L206.042 54.4407ZM206.373 74.0032V75.1808H207.551V74.0032H206.373ZM202.295 74.0032H201.117V75.1808H202.295V74.0032ZM202.295 70.277H203.473L201.121 70.1818L202.295 70.277ZM200.97 72.9267L201.769 73.7921L201.77 73.7908L200.97 72.9267ZM190.205 73.6927L189.727 74.7688L189.74 74.7744L189.753 74.7797L190.205 73.6927ZM188.901 72.8232L188.053 73.6401L188.068 73.6561L188.084 73.6715L188.901 72.8232ZM188.032 71.5191L186.945 71.972L186.95 71.9847L186.956 71.9973L188.032 71.5191ZM191.779 69.9251H190.601V71.1027H191.779V69.9251ZM202.295 69.9251V71.1027H203.473V69.9251H202.295ZM202.295 64.3772H203.473V63.1996H202.295V64.3772ZM191.779 64.3772V63.1996H190.601V64.3772H191.779ZM187.721 64.3772H188.899C188.899 63.9585 188.975 63.5933 189.114 63.2678L188.032 62.8039L186.949 62.34C186.675 62.9806 186.544 63.6643 186.544 64.3772H187.721ZM188.032 62.8039L189.108 63.2822C189.276 62.9042 189.491 62.5856 189.75 62.3166L188.901 61.4998L188.053 60.6829C187.594 61.1592 187.229 61.71 186.956 62.3256L188.032 62.8039ZM188.901 61.4998L189.734 62.3325C189.996 62.071 190.3 61.8665 190.658 61.7174L190.205 60.6303L189.753 59.5433C189.117 59.8081 188.552 60.1833 188.069 60.667L188.901 61.4998ZM190.205 60.6303L190.684 61.7065C191.028 61.5537 191.389 61.4768 191.779 61.4768V60.2991V59.1215C191.065 59.1215 190.377 59.2654 189.727 59.5542L190.205 60.6303ZM191.779 60.2991V61.4768H202.295V60.2991V59.1215H191.779V60.2991ZM202.295 60.2991H203.473V56.0347H202.295H201.117V60.2991H202.295ZM202.295 56.0347V54.8571H188.984V56.0347V57.2124H202.295V56.0347ZM188.984 56.0347H190.162V51.9566H188.984H187.806V56.0347H188.984ZM188.984 51.9566V53.1343H202.295V51.9566V50.779H188.984V51.9566ZM202.295 51.9566V53.1343C202.703 53.1343 203.07 53.2128 203.411 53.364L203.889 52.2878L204.367 51.2117C203.714 50.9212 203.019 50.779 202.295 50.779V51.9566ZM203.889 52.2878L203.436 53.3749C203.79 53.5224 204.082 53.7224 204.324 53.9742L205.172 53.1573L206.021 52.3404C205.545 51.8469 204.981 51.4673 204.342 51.2008L203.889 52.2878ZM205.172 53.1573L204.355 54.0056C204.607 54.248 204.807 54.5396 204.955 54.8937L206.042 54.4407L207.129 53.9878C206.862 53.3482 206.483 52.7842 205.989 52.309L205.172 53.1573ZM206.042 54.4407L204.966 54.919C205.117 55.2591 205.195 55.6268 205.195 56.0347H206.373H207.551C207.551 55.311 207.408 54.616 207.118 53.9624L206.042 54.4407ZM206.373 56.0347H205.195V74.0032H206.373H207.551V56.0347H206.373ZM206.373 74.0032V72.8255H202.295V74.0032V75.1808H206.373V74.0032ZM202.295 74.0032H203.473V70.277H202.295H201.117V74.0032H202.295ZM202.295 70.277L201.121 70.1818C201.092 70.5375 200.997 70.8695 200.834 71.1867L201.881 71.7261L202.928 72.2654C203.234 71.6717 203.415 71.0378 203.469 70.3722L202.295 70.277ZM201.881 71.7261L200.834 71.1867C200.662 71.5215 200.441 71.8115 200.17 72.0626L200.97 72.9267L201.77 73.7908C202.244 73.3519 202.631 72.8415 202.928 72.2654L201.881 71.7261ZM200.97 72.9267L200.171 72.0614C199.919 72.2942 199.625 72.4823 199.28 72.6244L199.728 73.7134L200.176 74.8023C200.77 74.558 201.303 74.2217 201.769 73.7921L200.97 72.9267ZM199.728 73.7134L199.28 72.6244C198.957 72.7571 198.613 72.8255 198.237 72.8255V74.0032V75.1808C198.91 75.1808 199.56 75.0561 200.176 74.8023L199.728 73.7134ZM198.237 74.0032V72.8255H191.779V74.0032V75.1808H198.237V74.0032ZM191.779 74.0032V72.8255C191.378 72.8255 191.008 72.7513 190.658 72.6056L190.205 73.6927L189.753 74.7797C190.397 75.0481 191.075 75.1808 191.779 75.1808V74.0032ZM190.205 73.6927L190.684 72.6165C190.306 72.4485 189.987 72.2339 189.718 71.9749L188.901 72.8232L188.084 73.6715C188.561 74.1302 189.112 74.4952 189.727 74.7688L190.205 73.6927ZM188.901 72.8232L189.75 72.0063C189.491 71.7374 189.276 71.4188 189.108 71.0408L188.032 71.5191L186.956 71.9973C187.229 72.613 187.594 73.1638 188.053 73.6401L188.901 72.8232ZM188.032 71.5191L189.119 71.0661C188.975 70.7201 188.899 70.3435 188.899 69.9251H187.721H186.544C186.544 70.6383 186.675 71.3244 186.945 71.972L188.032 71.5191ZM187.721 69.9251H188.899V64.3772H187.721H186.544V69.9251H187.721ZM191.779 69.9251V71.1027H202.295V69.9251V68.7474H191.779V69.9251ZM202.295 69.9251H203.473V64.3772H202.295H201.117V69.9251H202.295ZM202.295 64.3772V63.1996H191.779V64.3772V65.5549H202.295V64.3772ZM191.779 64.3772H190.601V69.9251H191.779H192.956V64.3772H191.779ZM211.9 51.9566V50.779H210.722V51.9566H211.9ZM217.282 51.9566V53.1343H218.46V51.9566H217.282ZM217.282 45.1667V43.989H216.105V45.1667H217.282ZM221.36 45.1667H222.538V43.989H221.36V45.1667ZM221.36 51.9566H220.183V53.1343H221.36V51.9566ZM228.606 51.9566H229.783V50.779H228.606V51.9566ZM228.606 56.0347V57.2124H229.783V56.0347H228.606ZM221.36 56.0347V54.8571H220.183V56.0347H221.36ZM221.36 69.9251H220.183V71.1027H221.36V69.9251ZM228.606 69.9251H229.783V68.7474H228.606V69.9251ZM228.606 74.0032V75.1808H229.783V74.0032H228.606ZM219.787 73.6927L219.309 74.7688L219.322 74.7744L219.334 74.7797L219.787 73.6927ZM218.483 72.8232L217.65 73.6559L217.658 73.6638L217.666 73.6715L218.483 72.8232ZM217.593 71.5191L216.506 71.972L216.511 71.9847L216.517 71.9973L217.593 71.5191ZM217.282 56.0347H218.46V54.8571H217.282V56.0347ZM211.9 56.0347H210.722V57.2124H211.9V56.0347ZM211.9 51.9566V53.1343H217.282V51.9566V50.779H211.9V51.9566ZM217.282 51.9566H218.46V45.1667H217.282H216.105V51.9566H217.282ZM217.282 45.1667V46.3444H221.36V45.1667V43.989H217.282V45.1667ZM221.36 45.1667H220.183V51.9566H221.36H222.538V45.1667H221.36ZM221.36 51.9566V53.1343H228.606V51.9566V50.779H221.36V51.9566ZM228.606 51.9566H227.428V56.0347H228.606H229.783V51.9566H228.606ZM228.606 56.0347V54.8571H221.36V56.0347V57.2124H228.606V56.0347ZM221.36 56.0347H220.183V69.9251H221.36H222.538V56.0347H221.36ZM221.36 69.9251V71.1027H228.606V69.9251V68.7474H221.36V69.9251ZM228.606 69.9251H227.428V74.0032H228.606H229.783V69.9251H228.606ZM228.606 74.0032V72.8255H221.36V74.0032V75.1808H228.606V74.0032ZM221.36 74.0032V72.8255C220.96 72.8255 220.59 72.7513 220.24 72.6056L219.787 73.6927L219.334 74.7797C219.978 75.0481 220.657 75.1808 221.36 75.1808V74.0032ZM219.787 73.6927L220.265 72.6165C219.887 72.4485 219.569 72.2339 219.3 71.9749L218.483 72.8232L217.666 73.6715C218.142 74.1302 218.693 74.4952 219.309 74.7688L219.787 73.6927ZM218.483 72.8232L219.316 71.9905C219.049 71.7233 218.833 71.4098 218.669 71.0408L217.593 71.5191L216.517 71.9973C216.794 72.622 217.172 73.1779 217.65 73.6559L218.483 72.8232ZM217.593 71.5191L218.68 71.0661C218.536 70.7201 218.46 70.3435 218.46 69.9251H217.282H216.105C216.105 70.6383 216.236 71.3244 216.506 71.972L217.593 71.5191ZM217.282 69.9251H218.46V56.0347H217.282H216.105V69.9251H217.282ZM217.282 56.0347V54.8571H211.9V56.0347V57.2124H217.282V56.0347ZM211.9 56.0347H213.078V51.9566H211.9H210.722V56.0347H211.9ZM235.727 62.8039L234.651 62.3256L234.648 62.3328L234.645 62.34L235.727 62.8039ZM236.596 61.4998L235.764 60.667L235.756 60.6749L235.748 60.6829L236.596 61.4998ZM237.901 60.6303L238.354 61.7174L238.366 61.7121L238.379 61.7065L237.901 60.6303ZM249.99 60.2991V61.4768H251.168V60.2991H249.99ZM249.99 56.0347H251.168V54.8571H249.99V56.0347ZM236.679 56.0347H235.502V57.2124H236.679V56.0347ZM236.679 51.9566V50.779H235.502V51.9566H236.679ZM251.584 52.2878L251.106 53.364L251.118 53.3696L251.131 53.3749L251.584 52.2878ZM252.867 53.1573L252.019 53.9742L252.035 53.9902L252.051 54.0056L252.867 53.1573ZM253.737 54.4407L252.65 54.8937L252.655 54.9064L252.661 54.919L253.737 54.4407ZM254.068 74.0032V75.1808H255.246V74.0032H254.068ZM249.99 74.0032H248.812V75.1808H249.99V74.0032ZM249.99 70.277H251.168L248.816 70.1818L249.99 70.277ZM248.665 72.9267L249.464 73.7921L249.465 73.7908L248.665 72.9267ZM237.901 73.6927L237.422 74.7688L237.435 74.7744L237.448 74.7797L237.901 73.6927ZM236.596 72.8232L235.748 73.6401L235.764 73.6561L235.78 73.6715L236.596 72.8232ZM235.727 71.5191L234.64 71.972L234.645 71.9847L234.651 71.9973L235.727 71.5191ZM239.474 69.9251H238.296V71.1027H239.474V69.9251ZM249.99 69.9251V71.1027H251.168V69.9251H249.99ZM249.99 64.3772H251.168V63.1996H249.99V64.3772ZM239.474 64.3772V63.1996H238.296V64.3772H239.474ZM235.416 64.3772H236.594C236.594 63.9585 236.67 63.5933 236.809 63.2678L235.727 62.8039L234.645 62.34C234.37 62.9806 234.239 63.6643 234.239 64.3772H235.416ZM235.727 62.8039L236.803 63.2822C236.971 62.9042 237.186 62.5856 237.445 62.3166L236.596 61.4998L235.748 60.6829C235.289 61.1592 234.924 61.71 234.651 62.3256L235.727 62.8039ZM236.596 61.4998L237.429 62.3325C237.691 62.071 237.996 61.8665 238.354 61.7174L237.901 60.6303L237.448 59.5433C236.812 59.8081 236.247 60.1833 235.764 60.667L236.596 61.4998ZM237.901 60.6303L238.379 61.7065C238.723 61.5537 239.084 61.4768 239.474 61.4768V60.2991V59.1215C238.76 59.1215 238.072 59.2654 237.422 59.5542L237.901 60.6303ZM239.474 60.2991V61.4768H249.99V60.2991V59.1215H239.474V60.2991ZM249.99 60.2991H251.168V56.0347H249.99H248.812V60.2991H249.99ZM249.99 56.0347V54.8571H236.679V56.0347V57.2124H249.99V56.0347ZM236.679 56.0347H237.857V51.9566H236.679H235.502V56.0347H236.679ZM236.679 51.9566V53.1343H249.99V51.9566V50.779H236.679V51.9566ZM249.99 51.9566V53.1343C250.398 53.1343 250.766 53.2128 251.106 53.364L251.584 52.2878L252.062 51.2117C251.409 50.9212 250.714 50.779 249.99 50.779V51.9566ZM251.584 52.2878L251.131 53.3749C251.485 53.5224 251.777 53.7224 252.019 53.9742L252.867 53.1573L253.716 52.3404C253.24 51.8469 252.676 51.4673 252.037 51.2008L251.584 52.2878ZM252.867 53.1573L252.051 54.0056C252.302 54.248 252.502 54.5396 252.65 54.8937L253.737 54.4407L254.824 53.9878C254.557 53.3482 254.178 52.7842 253.684 52.309L252.867 53.1573ZM253.737 54.4407L252.661 54.919C252.812 55.2591 252.89 55.6268 252.89 56.0347H254.068H255.246C255.246 55.311 255.103 54.616 254.813 53.9624L253.737 54.4407ZM254.068 56.0347H252.89V74.0032H254.068H255.246V56.0347H254.068ZM254.068 74.0032V72.8255H249.99V74.0032V75.1808H254.068V74.0032ZM249.99 74.0032H251.168V70.277H249.99H248.812V74.0032H249.99ZM249.99 70.277L248.816 70.1818C248.787 70.5375 248.692 70.8695 248.529 71.1867L249.576 71.7261L250.623 72.2654C250.929 71.6717 251.11 71.0378 251.164 70.3722L249.99 70.277ZM249.576 71.7261L248.529 71.1867C248.357 71.5215 248.136 71.8115 247.865 72.0626L248.665 72.9267L249.465 73.7908C249.939 73.3519 250.326 72.8415 250.623 72.2654L249.576 71.7261ZM248.665 72.9267L247.866 72.0614C247.614 72.2942 247.32 72.4823 246.975 72.6244L247.423 73.7134L247.871 74.8023C248.465 74.558 248.998 74.2217 249.464 73.7921L248.665 72.9267ZM247.423 73.7134L246.975 72.6244C246.652 72.7571 246.308 72.8255 245.933 72.8255V74.0032V75.1808C246.606 75.1808 247.255 75.0561 247.871 74.8023L247.423 73.7134ZM245.933 74.0032V72.8255H239.474V74.0032V75.1808H245.933V74.0032ZM239.474 74.0032V72.8255C239.073 72.8255 238.703 72.7513 238.354 72.6056L237.901 73.6927L237.448 74.7797C238.092 75.0481 238.77 75.1808 239.474 75.1808V74.0032ZM237.901 73.6927L238.379 72.6165C238.001 72.4485 237.682 72.2339 237.413 71.9749L236.596 72.8232L235.78 73.6715C236.256 74.1302 236.807 74.4952 237.422 74.7688L237.901 73.6927ZM236.596 72.8232L237.445 72.0063C237.186 71.7374 236.971 71.4188 236.803 71.0408L235.727 71.5191L234.651 71.9973C234.924 72.613 235.289 73.1638 235.748 73.6401L236.596 72.8232ZM235.727 71.5191L236.814 71.0661C236.67 70.7201 236.594 70.3435 236.594 69.9251H235.416H234.239C234.239 70.6383 234.37 71.3244 234.64 71.972L235.727 71.5191ZM235.416 69.9251H236.594V64.3772H235.416H234.239V69.9251H235.416ZM239.474 69.9251V71.1027H249.99V69.9251V68.7474H239.474V69.9251ZM249.99 69.9251H251.168V64.3772H249.99H248.812V69.9251H249.99ZM249.99 64.3772V63.1996H239.474V64.3772V65.5549H249.99V64.3772ZM239.474 64.3772H238.296V69.9251H239.474H240.651V64.3772H239.474ZM287.148 44.318L288.247 43.8942L287.956 43.1403H287.148V44.318ZM298.596 74.0032V75.1808H300.312L299.695 73.5794L298.596 74.0032ZM294.352 74.0032L293.253 74.4262L293.544 75.1808H294.352V74.0032ZM291.723 67.1718L292.822 66.7489L292.532 65.9942H291.723V67.1718ZM278.33 67.1718V65.9942H277.521L277.231 66.7489L278.33 67.1718ZM275.701 74.0032V75.1808H276.509L276.8 74.4262L275.701 74.0032ZM271.457 74.0032L270.358 73.5794L269.741 75.1808H271.457V74.0032ZM282.905 44.318V43.1403H282.096L281.806 43.8942L282.905 44.318ZM279.944 62.9281L278.847 62.501L278.222 64.1058H279.944V62.9281ZM290.088 62.9281V64.1058H291.805L291.186 62.504L290.088 62.9281ZM285.037 49.8451L286.135 49.421L285.041 46.587L283.939 49.4179L285.037 49.8451ZM287.148 44.318L286.049 44.7417L297.497 74.4269L298.596 74.0032L299.695 73.5794L288.247 43.8942L287.148 44.318ZM298.596 74.0032V72.8255H294.352V74.0032V75.1808H298.596V74.0032ZM294.352 74.0032L295.451 73.5802L292.822 66.7489L291.723 67.1718L290.624 67.5948L293.253 74.4262L294.352 74.0032ZM291.723 67.1718V65.9942H278.33V67.1718V68.3495H291.723V67.1718ZM278.33 67.1718L277.231 66.7489L274.601 73.5802L275.701 74.0032L276.8 74.4262L279.429 67.5948L278.33 67.1718ZM275.701 74.0032V72.8255H271.457V74.0032V75.1808H275.701V74.0032ZM271.457 74.0032L272.556 74.4269L284.003 44.7417L282.905 44.318L281.806 43.8942L270.358 73.5794L271.457 74.0032ZM282.905 44.318V45.4956H287.148V44.318V43.1403H282.905V44.318ZM279.944 62.9281V64.1058H290.088V62.9281V61.7505H279.944V62.9281ZM290.088 62.9281L291.186 62.504L286.135 49.421L285.037 49.8451L283.938 50.2693L288.989 63.3523L290.088 62.9281ZM285.037 49.8451L283.939 49.4179L278.847 62.501L279.944 62.9281L281.042 63.3553L286.134 50.2723L285.037 49.8451ZM322.775 74.0032V75.1808H323.952V74.0032H322.775ZM318.697 74.0032H317.519V75.1808H318.697V74.0032ZM318.697 56.0347H319.874V54.8571H318.697V56.0347ZM307.332 56.0347V54.8571H306.154V56.0347H307.332ZM307.332 74.0032V75.1808H308.509V74.0032H307.332ZM303.274 74.0032H302.097V75.1808H303.274V74.0032ZM303.274 51.9566V50.779H302.097V51.9566H303.274ZM307.332 51.9566H308.509V50.779H307.332V51.9566ZM307.332 55.8484H306.154L308.508 55.9087L307.332 55.8484ZM307.704 54.3372L308.77 54.8387L308.775 54.8269L307.704 54.3372ZM308.574 53.0952L309.39 53.9441L309.391 53.9435L308.574 53.0952ZM309.857 52.2671L310.295 53.3606L310.308 53.3552L310.321 53.3496L309.857 52.2671ZM320.29 52.2878L319.812 53.364L319.825 53.3696L319.838 53.3749L320.29 52.2878ZM321.574 53.1573L320.726 53.9742L320.741 53.9902L320.757 54.0056L321.574 53.1573ZM322.443 54.4407L321.356 54.8937L321.362 54.9064L321.367 54.919L322.443 54.4407ZM322.775 74.0032V72.8255H318.697V74.0032V75.1808H322.775V74.0032ZM318.697 74.0032H319.874V56.0347H318.697H317.519V74.0032H318.697ZM318.697 56.0347V54.8571H307.332V56.0347V57.2124H318.697V56.0347ZM307.332 56.0347H306.154V74.0032H307.332H308.509V56.0347H307.332ZM307.332 74.0032V72.8255H303.274V74.0032V75.1808H307.332V74.0032ZM303.274 74.0032H304.452V51.9566H303.274H302.097V74.0032H303.274ZM303.274 51.9566V53.1343H307.332V51.9566V50.779H303.274V51.9566ZM307.332 51.9566H306.154V55.8484H307.332H308.509V51.9566H307.332ZM307.332 55.8484L308.508 55.9087C308.528 55.5172 308.617 55.164 308.77 54.8387L307.704 54.3372L306.639 53.8358C306.35 54.4489 306.191 55.1032 306.156 55.7881L307.332 55.8484ZM307.704 54.3372L308.775 54.8269C308.939 54.4694 309.145 54.1797 309.39 53.9441L308.574 53.0952L307.757 52.2463C307.285 52.7007 306.911 53.239 306.633 53.8476L307.704 54.3372ZM308.574 53.0952L309.391 53.9435C309.653 53.6907 309.952 53.4976 310.295 53.3606L309.857 52.2671L309.42 51.1737C308.796 51.423 308.24 51.782 307.757 52.2469L308.574 53.0952ZM309.857 52.2671L310.321 53.3496C310.65 53.2085 311.009 53.1343 311.41 53.1343V51.9566V50.779C310.706 50.779 310.03 50.9117 309.393 51.1847L309.857 52.2671ZM311.41 51.9566V53.1343H318.697V51.9566V50.779H311.41V51.9566ZM318.697 51.9566V53.1343C319.104 53.1343 319.472 53.2128 319.812 53.364L320.29 52.2878L320.769 51.2117C320.115 50.9212 319.42 50.779 318.697 50.779V51.9566ZM320.29 52.2878L319.838 53.3749C320.192 53.5224 320.483 53.7224 320.726 53.9742L321.574 53.1573L322.422 52.3404C321.947 51.8469 321.383 51.4673 320.743 51.2008L320.29 52.2878ZM321.574 53.1573L320.757 54.0056C321.009 54.248 321.209 54.5396 321.356 54.8937L322.443 54.4407L323.53 53.9878C323.264 53.3482 322.884 52.7842 322.391 52.309L321.574 53.1573ZM322.443 54.4407L321.367 54.919C321.518 55.2591 321.597 55.6268 321.597 56.0347H322.775H323.952C323.952 55.311 323.81 54.616 323.52 53.9624L322.443 54.4407ZM322.775 56.0347H321.597V74.0032H322.775H323.952V56.0347H322.775ZM329.875 62.8039L328.799 62.3256L328.796 62.3328L328.793 62.34L329.875 62.8039ZM330.744 61.4998L329.912 60.667L329.904 60.6749L329.896 60.6829L330.744 61.4998ZM332.049 60.6303L332.502 61.7174L332.514 61.7121L332.527 61.7065L332.049 60.6303ZM344.138 60.2991V61.4768H345.316V60.2991H344.138ZM344.138 56.0347H345.316V54.8571H344.138V56.0347ZM330.827 56.0347H329.65V57.2124H330.827V56.0347ZM330.827 51.9566V50.779H329.65V51.9566H330.827ZM345.732 52.2878L345.254 53.364L345.266 53.3696L345.279 53.3749L345.732 52.2878ZM347.015 53.1573L346.167 53.9742L346.183 53.9902L346.199 54.0056L347.015 53.1573ZM347.885 54.4407L346.798 54.8937L346.803 54.9064L346.809 54.919L347.885 54.4407ZM348.216 74.0032V75.1808H349.394V74.0032H348.216ZM344.138 74.0032H342.96V75.1808H344.138V74.0032ZM344.138 70.277H345.316L342.964 70.1818L344.138 70.277ZM342.813 72.9267L343.612 73.7921L343.613 73.7908L342.813 72.9267ZM332.049 73.6927L331.57 74.7688L331.583 74.7744L331.596 74.7797L332.049 73.6927ZM330.744 72.8232L329.896 73.6401L329.912 73.6561L329.928 73.6715L330.744 72.8232ZM329.875 71.5191L328.788 71.972L328.793 71.9847L328.799 71.9973L329.875 71.5191ZM333.622 69.9251H332.444V71.1027H333.622V69.9251ZM344.138 69.9251V71.1027H345.316V69.9251H344.138ZM344.138 64.3772H345.316V63.1996H344.138V64.3772ZM333.622 64.3772V63.1996H332.444V64.3772H333.622ZM329.565 64.3772H330.742C330.742 63.9585 330.818 63.5933 330.957 63.2678L329.875 62.8039L328.793 62.34C328.518 62.9806 328.387 63.6643 328.387 64.3772H329.565ZM329.875 62.8039L330.951 63.2822C331.119 62.9042 331.334 62.5856 331.593 62.3166L330.744 61.4998L329.896 60.6829C329.438 61.1592 329.073 61.71 328.799 62.3256L329.875 62.8039ZM330.744 61.4998L331.577 62.3325C331.839 62.071 332.144 61.8665 332.502 61.7174L332.049 60.6303L331.596 59.5433C330.96 59.8081 330.396 60.1833 329.912 60.667L330.744 61.4998ZM332.049 60.6303L332.527 61.7065C332.871 61.5537 333.232 61.4768 333.622 61.4768V60.2991V59.1215C332.908 59.1215 332.22 59.2654 331.57 59.5542L332.049 60.6303ZM333.622 60.2991V61.4768H344.138V60.2991V59.1215H333.622V60.2991ZM344.138 60.2991H345.316V56.0347H344.138H342.96V60.2991H344.138ZM344.138 56.0347V54.8571H330.827V56.0347V57.2124H344.138V56.0347ZM330.827 56.0347H332.005V51.9566H330.827H329.65V56.0347H330.827ZM330.827 51.9566V53.1343H344.138V51.9566V50.779H330.827V51.9566ZM344.138 51.9566V53.1343C344.546 53.1343 344.914 53.2128 345.254 53.364L345.732 52.2878L346.21 51.2117C345.557 50.9212 344.862 50.779 344.138 50.779V51.9566ZM345.732 52.2878L345.279 53.3749C345.633 53.5224 345.925 53.7224 346.167 53.9742L347.015 53.1573L347.864 52.3404C347.389 51.8469 346.825 51.4673 346.185 51.2008L345.732 52.2878ZM347.015 53.1573L346.199 54.0056C346.45 54.248 346.65 54.5396 346.798 54.8937L347.885 54.4407L348.972 53.9878C348.705 53.3482 348.326 52.7842 347.832 52.309L347.015 53.1573ZM347.885 54.4407L346.809 54.919C346.96 55.2591 347.038 55.6268 347.038 56.0347H348.216H349.394C349.394 55.311 349.252 54.616 348.961 53.9624L347.885 54.4407ZM348.216 56.0347H347.038V74.0032H348.216H349.394V56.0347H348.216ZM348.216 74.0032V72.8255H344.138V74.0032V75.1808H348.216V74.0032ZM344.138 74.0032H345.316V70.277H344.138H342.96V74.0032H344.138ZM344.138 70.277L342.964 70.1818C342.935 70.5375 342.841 70.8695 342.677 71.1867L343.724 71.7261L344.771 72.2654C345.077 71.6717 345.258 71.0378 345.312 70.3722L344.138 70.277ZM343.724 71.7261L342.677 71.1867C342.505 71.5215 342.284 71.8115 342.013 72.0626L342.813 72.9267L343.613 73.7908C344.087 73.3519 344.474 72.8415 344.771 72.2654L343.724 71.7261ZM342.813 72.9267L342.014 72.0614C341.762 72.2942 341.468 72.4823 341.123 72.6244L341.571 73.7134L342.019 74.8023C342.613 74.558 343.147 74.2217 343.612 73.7921L342.813 72.9267ZM341.571 73.7134L341.123 72.6244C340.801 72.7571 340.456 72.8255 340.081 72.8255V74.0032V75.1808C340.754 75.1808 341.403 75.0561 342.019 74.8023L341.571 73.7134ZM340.081 74.0032V72.8255H333.622V74.0032V75.1808H340.081V74.0032ZM333.622 74.0032V72.8255C333.221 72.8255 332.851 72.7513 332.502 72.6056L332.049 73.6927L331.596 74.7797C332.24 75.0481 332.918 75.1808 333.622 75.1808V74.0032ZM332.049 73.6927L332.527 72.6165C332.149 72.4485 331.83 72.2339 331.561 71.9749L330.744 72.8232L329.928 73.6715C330.404 74.1302 330.955 74.4952 331.57 74.7688L332.049 73.6927ZM330.744 72.8232L331.593 72.0063C331.334 71.7374 331.119 71.4188 330.951 71.0408L329.875 71.5191L328.799 71.9973C329.073 72.613 329.438 73.1638 329.896 73.6401L330.744 72.8232ZM329.875 71.5191L330.962 71.0661C330.818 70.7201 330.742 70.3435 330.742 69.9251H329.565H328.387C328.387 70.6383 328.518 71.3244 328.788 71.972L329.875 71.5191ZM329.565 69.9251H330.742V64.3772H329.565H328.387V69.9251H329.565ZM333.622 69.9251V71.1027H344.138V69.9251V68.7474H333.622V69.9251ZM344.138 69.9251H345.316V64.3772H344.138H342.96V69.9251H344.138ZM344.138 64.3772V63.1996H333.622V64.3772V65.5549H344.138V64.3772ZM333.622 64.3772H332.444V69.9251H333.622H334.8V64.3772H333.622ZM359.084 43.4692H360.262V42.2916H359.084V43.4692ZM359.084 74.0032V75.1808H360.262V74.0032H359.084ZM355.027 74.0032H353.849V75.1808H355.027V74.0032ZM355.027 43.4692V42.2916H353.849V43.4692H355.027ZM359.084 43.4692H357.906V74.0032H359.084H360.262V43.4692H359.084ZM359.084 74.0032V72.8255H355.027V74.0032V75.1808H359.084V74.0032ZM355.027 74.0032H356.204V43.4692H355.027H353.849V74.0032H355.027ZM355.027 43.4692V44.6469H359.084V43.4692V42.2916H355.027V43.4692ZM367.365 82.9046L366.28 82.4449L365.586 84.0823H367.365V82.9046ZM371.981 72.0159L373.065 72.4755L373.262 72.0119L373.062 71.5494L371.981 72.0159ZM363.328 51.9566V50.779H361.537L362.247 52.4231L363.328 51.9566ZM367.613 51.9566L368.697 51.4967L368.393 50.779H367.613V51.9566ZM374.051 67.1304L372.967 67.5904L374.051 70.1456L375.135 67.5904L374.051 67.1304ZM380.489 51.9566V50.779H379.709L379.405 51.4967L380.489 51.9566ZM384.774 51.9566L385.855 52.4231L386.565 50.779H384.774V51.9566ZM371.422 82.9046V84.0823H372.196L372.503 83.3711L371.422 82.9046ZM367.365 82.9046L368.449 83.3643L373.065 72.4755L371.981 72.0159L370.897 71.5562L366.28 82.4449L367.365 82.9046ZM371.981 72.0159L373.062 71.5494L364.409 51.4902L363.328 51.9566L362.247 52.4231L370.9 72.4823L371.981 72.0159ZM363.328 51.9566V53.1343H367.613V51.9566V50.779H363.328V51.9566ZM367.613 51.9566L366.529 52.4166L372.967 67.5904L374.051 67.1304L375.135 66.6705L368.697 51.4967L367.613 51.9566ZM374.051 67.1304L375.135 67.5904L381.573 52.4166L380.489 51.9566L379.405 51.4967L372.967 66.6705L374.051 67.1304ZM380.489 51.9566V53.1343H384.774V51.9566V50.779H380.489V51.9566ZM384.774 51.9566L383.693 51.4901L370.341 82.4381L371.422 82.9046L372.503 83.3711L385.855 52.4231L384.774 51.9566ZM371.422 82.9046V81.7269H367.365V82.9046V84.0823H371.422V82.9046ZM387.734 51.9566V50.779H386.557V51.9566H387.734ZM393.117 51.9566V53.1343H394.294V51.9566H393.117ZM393.117 45.1667V43.989H391.939V45.1667H393.117ZM397.195 45.1667H398.372V43.989H397.195V45.1667ZM397.195 51.9566H396.017V53.1343H397.195V51.9566ZM404.44 51.9566H405.618V50.779H404.44V51.9566ZM404.44 56.0347V57.2124H405.618V56.0347H404.44ZM397.195 56.0347V54.8571H396.017V56.0347H397.195ZM397.195 69.9251H396.017V71.1027H397.195V69.9251ZM404.44 69.9251H405.618V68.7474H404.44V69.9251ZM404.44 74.0032V75.1808H405.618V74.0032H404.44ZM395.621 73.6927L395.143 74.7688L395.156 74.7744L395.168 74.7797L395.621 73.6927ZM394.317 72.8232L393.485 73.6559L393.492 73.6638L393.5 73.6715L394.317 72.8232ZM393.427 71.5191L392.34 71.972L392.345 71.9847L392.351 71.9973L393.427 71.5191ZM393.117 56.0347H394.294V54.8571H393.117V56.0347ZM387.734 56.0347H386.557V57.2124H387.734V56.0347ZM387.734 51.9566V53.1343H393.117V51.9566V50.779H387.734V51.9566ZM393.117 51.9566H394.294V45.1667H393.117H391.939V51.9566H393.117ZM393.117 45.1667V46.3444H397.195V45.1667V43.989H393.117V45.1667ZM397.195 45.1667H396.017V51.9566H397.195H398.372V45.1667H397.195ZM397.195 51.9566V53.1343H404.44V51.9566V50.779H397.195V51.9566ZM404.44 51.9566H403.262V56.0347H404.44H405.618V51.9566H404.44ZM404.44 56.0347V54.8571H397.195V56.0347V57.2124H404.44V56.0347ZM397.195 56.0347H396.017V69.9251H397.195H398.372V56.0347H397.195ZM397.195 69.9251V71.1027H404.44V69.9251V68.7474H397.195V69.9251ZM404.44 69.9251H403.262V74.0032H404.44H405.618V69.9251H404.44ZM404.44 74.0032V72.8255H397.195V74.0032V75.1808H404.44V74.0032ZM397.195 74.0032V72.8255C396.794 72.8255 396.424 72.7513 396.074 72.6056L395.621 73.6927L395.168 74.7797C395.813 75.0481 396.491 75.1808 397.195 75.1808V74.0032ZM395.621 73.6927L396.1 72.6165C395.722 72.4485 395.403 72.2339 395.134 71.9749L394.317 72.8232L393.5 73.6715C393.977 74.1302 394.527 74.4952 395.143 74.7688L395.621 73.6927ZM394.317 72.8232L395.15 71.9905C394.883 71.7233 394.667 71.4098 394.503 71.0408L393.427 71.5191L392.351 71.9973C392.629 72.622 393.006 73.1779 393.485 73.6559L394.317 72.8232ZM393.427 71.5191L394.514 71.0661C394.37 70.7201 394.294 70.3435 394.294 69.9251H393.117H391.939C391.939 70.6383 392.07 71.3244 392.34 71.972L393.427 71.5191ZM393.117 69.9251H394.294V56.0347H393.117H391.939V69.9251H393.117ZM393.117 56.0347V54.8571H387.734V56.0347V57.2124H393.117V56.0347ZM387.734 56.0347H388.912V51.9566H387.734H386.557V56.0347H387.734ZM415.536 51.9566H416.713V50.779H415.536V51.9566ZM415.536 74.0032V75.1808H416.713V74.0032H415.536ZM411.458 74.0032H410.28V75.1808H411.458V74.0032ZM411.458 51.9566V50.779H410.28V51.9566H411.458ZM411.251 43.4692V42.2916H410.073V43.4692H411.251ZM415.743 43.4692H416.92V42.2916H415.743V43.4692ZM415.743 47.7129V48.8906H416.92V47.7129H415.743ZM411.251 47.7129H410.073V48.8906H411.251V47.7129ZM415.536 51.9566H414.358V74.0032H415.536H416.713V51.9566H415.536ZM415.536 74.0032V72.8255H411.458V74.0032V75.1808H415.536V74.0032ZM411.458 74.0032H412.635V51.9566H411.458H410.28V74.0032H411.458ZM411.458 51.9566V53.1343H415.536V51.9566V50.779H411.458V51.9566ZM411.251 43.4692V44.6469H415.743V43.4692V42.2916H411.251V43.4692ZM415.743 43.4692H414.565V47.7129H415.743H416.92V43.4692H415.743ZM415.743 47.7129V46.5353H411.251V47.7129V48.8906H415.743V47.7129ZM411.251 47.7129H412.428V43.4692H411.251H410.073V47.7129H411.251ZM426.611 56.0347V54.8571H425.433V56.0347H426.611ZM426.611 69.9251H425.433V71.1027H426.611V69.9251ZM437.127 69.9251V71.1027H438.305V69.9251H437.127ZM437.127 66.1989V65.0212H435.949V66.1989H437.127ZM441.205 66.1989H442.383V65.0212H441.205V66.1989ZM440.874 71.5191L439.798 71.0408L439.792 71.0534L439.787 71.0661L440.874 71.5191ZM438.721 73.6927L439.174 74.7797L439.187 74.7744L439.199 74.7688L438.721 73.6927ZM425.037 73.6927L424.559 74.7688L424.572 74.7744L424.585 74.7797L425.037 73.6927ZM423.733 72.8232L422.885 73.6401L422.9 73.6561L422.916 73.6715L423.733 72.8232ZM422.864 71.5191L421.777 71.972L421.782 71.9847L421.788 71.9973L422.864 71.5191ZM422.864 54.4407L421.788 53.9624L421.782 53.9751L421.777 53.9878L422.864 54.4407ZM425.037 52.2878L425.49 53.3749L425.503 53.3696L425.516 53.364L425.037 52.2878ZM438.721 52.2878L438.243 53.364L438.255 53.3696L438.268 53.3749L438.721 52.2878ZM440.004 53.1573L439.156 53.9742L439.171 53.9902L439.187 54.0056L440.004 53.1573ZM440.874 54.4407L439.787 54.8937L439.792 54.9064L439.798 54.919L440.874 54.4407ZM441.205 59.7609V60.9386H442.383V59.7609H441.205ZM437.127 59.7609H435.949V60.9386H437.127V59.7609ZM437.127 56.0347H438.305V54.8571H437.127V56.0347ZM426.611 56.0347H425.433V69.9251H426.611H427.788V56.0347H426.611ZM426.611 69.9251V71.1027H437.127V69.9251V68.7474H426.611V69.9251ZM437.127 69.9251H438.305V66.1989H437.127H435.949V69.9251H437.127ZM437.127 66.1989V67.3766H441.205V66.1989V65.0212H437.127V66.1989ZM441.205 66.1989H440.027V69.9251H441.205H442.383V66.1989H441.205ZM441.205 69.9251H440.027C440.027 70.333 439.949 70.7007 439.798 71.0408L440.874 71.5191L441.95 71.9973C442.24 71.3438 442.383 70.6488 442.383 69.9251H441.205ZM440.874 71.5191L439.787 71.0661C439.638 71.4241 439.433 71.729 439.172 71.9905L440.004 72.8232L440.837 73.6559C441.321 73.1722 441.696 72.6077 441.961 71.972L440.874 71.5191ZM440.004 72.8232L439.172 71.9905C438.922 72.24 438.617 72.4502 438.243 72.6165L438.721 73.6927L439.199 74.7688C439.819 74.4935 440.369 74.1241 440.837 73.6559L440.004 72.8232ZM438.721 73.6927L438.268 72.6056C437.922 72.7498 437.545 72.8255 437.127 72.8255V74.0032V75.1808C437.84 75.1808 438.526 75.0496 439.174 74.7797L438.721 73.6927ZM437.127 74.0032V72.8255H426.611V74.0032V75.1808H437.127V74.0032ZM426.611 74.0032V72.8255C426.21 72.8255 425.84 72.7513 425.49 72.6056L425.037 73.6927L424.585 74.7797C425.229 75.0481 425.907 75.1808 426.611 75.1808V74.0032ZM425.037 73.6927L425.516 72.6165C425.138 72.4485 424.819 72.2339 424.55 71.9749L423.733 72.8232L422.916 73.6715C423.393 74.1302 423.944 74.4952 424.559 74.7688L425.037 73.6927ZM423.733 72.8232L424.582 72.0063C424.323 71.7374 424.108 71.4188 423.94 71.0408L422.864 71.5191L421.788 71.9973C422.061 72.613 422.426 73.1638 422.885 73.6401L423.733 72.8232ZM422.864 71.5191L423.951 71.0661C423.807 70.7201 423.731 70.3435 423.731 69.9251H422.553H421.376C421.376 70.6383 421.507 71.3244 421.777 71.972L422.864 71.5191ZM422.553 69.9251H423.731V56.0347H422.553H421.376V69.9251H422.553ZM422.553 56.0347H423.731C423.731 55.6163 423.807 55.2397 423.951 54.8937L422.864 54.4407L421.777 53.9878C421.507 54.6354 421.376 55.3215 421.376 56.0347H422.553ZM422.864 54.4407L423.94 54.919C424.106 54.5448 424.317 54.2395 424.566 53.99L423.733 53.1573L422.901 52.3246C422.432 52.7927 422.063 53.343 421.788 53.9624L422.864 54.4407ZM423.733 53.1573L424.566 53.99C424.828 53.7285 425.133 53.524 425.49 53.3749L425.037 52.2878L424.585 51.2008C423.949 51.4656 423.384 51.8408 422.901 52.3246L423.733 53.1573ZM425.037 52.2878L425.516 53.364C425.86 53.2112 426.221 53.1343 426.611 53.1343V51.9566V50.779C425.897 50.779 425.209 50.9229 424.559 51.2117L425.037 52.2878ZM426.611 51.9566V53.1343H437.127V51.9566V50.779H426.611V51.9566ZM437.127 51.9566V53.1343C437.535 53.1343 437.902 53.2128 438.243 53.364L438.721 52.2878L439.199 51.2117C438.546 50.9212 437.851 50.779 437.127 50.779V51.9566ZM438.721 52.2878L438.268 53.3749C438.622 53.5224 438.914 53.7224 439.156 53.9742L440.004 53.1573L440.853 52.3404C440.377 51.8469 439.813 51.4673 439.174 51.2008L438.721 52.2878ZM440.004 53.1573L439.187 54.0056C439.439 54.248 439.639 54.5396 439.787 54.8937L440.874 54.4407L441.961 53.9878C441.694 53.3482 441.315 52.7842 440.821 52.309L440.004 53.1573ZM440.874 54.4407L439.798 54.919C439.949 55.2591 440.027 55.6268 440.027 56.0347H441.205H442.383C442.383 55.311 442.24 54.616 441.95 53.9624L440.874 54.4407ZM441.205 56.0347H440.027V59.7609H441.205H442.383V56.0347H441.205ZM441.205 59.7609V58.5832H437.127V59.7609V60.9386H441.205V59.7609ZM437.127 59.7609H438.305V56.0347H437.127H435.949V59.7609H437.127ZM437.127 56.0347V54.8571H426.611V56.0347V57.2124H437.127V56.0347ZM461.326 69.9251V71.1027H462.504V69.9251H461.326ZM461.326 64.8119H462.504V63.6343H461.326V64.8119ZM450.065 64.5014L449.587 65.5776L449.599 65.5832L449.612 65.5885L450.065 64.5014ZM448.761 63.632L447.913 64.4489L447.928 64.4649L447.944 64.4803L448.761 63.632ZM447.891 62.3278L446.804 62.7808L446.81 62.7935L446.815 62.8061L447.891 62.3278ZM447.891 54.4407L446.815 53.9624L446.81 53.9751L446.804 53.9878L447.891 54.4407ZM450.065 52.2878L450.518 53.3749L450.531 53.3696L450.543 53.364L450.065 52.2878ZM464.556 51.9566H465.733V50.779H464.556V51.9566ZM464.556 56.0347V57.2124H465.733V56.0347H464.556ZM451.659 56.0347V54.8571H450.481V56.0347H451.659ZM451.659 60.7338H450.481V61.9115H451.659V60.7338ZM462.9 61.0651L462.41 62.1361L462.428 62.1444L462.447 62.1521L462.9 61.0651ZM464.204 61.9345L463.371 62.7672L463.379 62.7751L463.387 62.7828L464.204 61.9345ZM465.073 63.218L463.986 63.6709L463.991 63.6836L463.997 63.6963L465.073 63.218ZM465.073 71.5191L463.997 71.0408L463.991 71.0534L463.986 71.0661L465.073 71.5191ZM464.204 72.8232L465.021 73.6715L465.029 73.6638L465.036 73.6559L464.204 72.8232ZM462.9 73.6927L463.364 74.7751L463.371 74.772L463.378 74.7688L462.9 73.6927ZM447.581 74.0032H446.403V75.1808H447.581V74.0032ZM447.581 69.9251V68.7474H446.403V69.9251H447.581ZM461.326 69.9251H462.504V64.8119H461.326H460.149V69.9251H461.326ZM461.326 64.8119V63.6343H451.659V64.8119V65.9896H461.326V64.8119ZM451.659 64.8119V63.6343C451.241 63.6343 450.864 63.5585 450.518 63.4144L450.065 64.5014L449.612 65.5885C450.26 65.8583 450.946 65.9896 451.659 65.9896V64.8119ZM450.065 64.5014L450.543 63.4253C450.165 63.2573 449.847 63.0426 449.578 62.7837L448.761 63.632L447.944 64.4803C448.42 64.9389 448.971 65.304 449.587 65.5776L450.065 64.5014ZM448.761 63.632L449.609 62.8151C449.35 62.5462 449.136 62.2275 448.968 61.8495L447.891 62.3278L446.815 62.8061C447.089 63.4217 447.454 63.9725 447.913 64.4489L448.761 63.632ZM447.891 62.3278L448.978 61.8749C448.834 61.5289 448.759 61.1523 448.759 60.7338H447.581H446.403C446.403 61.447 446.534 62.1331 446.804 62.7808L447.891 62.3278ZM447.581 60.7338H448.759V56.0347H447.581H446.403V60.7338H447.581ZM447.581 56.0347H448.759C448.759 55.6163 448.834 55.2397 448.978 54.8937L447.891 54.4407L446.804 53.9878C446.534 54.6354 446.403 55.3215 446.403 56.0347H447.581ZM447.891 54.4407L448.968 54.919C449.134 54.5448 449.344 54.2395 449.594 53.99L448.761 53.1573L447.928 52.3246C447.46 52.7927 447.091 53.343 446.815 53.9624L447.891 54.4407ZM448.761 53.1573L449.594 53.99C449.855 53.7285 450.16 53.524 450.518 53.3749L450.065 52.2878L449.612 51.2008C448.976 51.4656 448.412 51.8408 447.928 52.3246L448.761 53.1573ZM450.065 52.2878L450.543 53.364C450.883 53.2128 451.251 53.1343 451.659 53.1343V51.9566V50.779C450.935 50.779 450.24 50.9212 449.587 51.2117L450.065 52.2878ZM451.659 51.9566V53.1343H464.556V51.9566V50.779H451.659V51.9566ZM464.556 51.9566H463.378V56.0347H464.556H465.733V51.9566H464.556ZM464.556 56.0347V54.8571H451.659V56.0347V57.2124H464.556V56.0347ZM451.659 56.0347H450.481V60.7338H451.659H452.837V56.0347H451.659ZM451.659 60.7338V61.9115H461.326V60.7338V59.5562H451.659V60.7338ZM461.326 60.7338V61.9115C461.734 61.9115 462.091 61.9901 462.41 62.1361L462.9 61.0651L463.389 59.994C462.743 59.6984 462.05 59.5562 461.326 59.5562V60.7338ZM462.9 61.0651L462.447 62.1521C462.805 62.3013 463.11 62.5057 463.371 62.7672L464.204 61.9345L465.036 61.1018C464.553 60.618 463.988 60.2429 463.353 59.978L462.9 61.0651ZM464.204 61.9345L463.387 62.7828C463.639 63.0252 463.839 63.3168 463.986 63.6709L465.073 63.218L466.16 62.765C465.894 62.1255 465.514 61.5614 465.021 61.0862L464.204 61.9345ZM465.073 63.218L463.997 63.6963C464.148 64.0363 464.227 64.404 464.227 64.8119H465.404H466.582C466.582 64.0882 466.44 63.3932 466.149 62.7397L465.073 63.218ZM465.404 64.8119H464.227V69.9251H465.404H466.582V64.8119H465.404ZM465.404 69.9251H464.227C464.227 70.333 464.148 70.7007 463.997 71.0408L465.073 71.5191L466.149 71.9973C466.44 71.3438 466.582 70.6488 466.582 69.9251H465.404ZM465.073 71.5191L463.986 71.0661C463.837 71.4241 463.633 71.729 463.371 71.9905L464.204 72.8232L465.036 73.6559C465.52 73.1722 465.895 72.6077 466.16 71.972L465.073 71.5191ZM464.204 72.8232L463.387 71.9749C463.118 72.2339 462.799 72.4485 462.421 72.6165L462.9 73.6927L463.378 74.7688C463.994 74.4952 464.544 74.1302 465.021 73.6715L464.204 72.8232ZM462.9 73.6927L462.436 72.6102C462.11 72.7497 461.745 72.8255 461.326 72.8255V74.0032V75.1808C462.039 75.1808 462.723 75.0496 463.364 74.7751L462.9 73.6927ZM461.326 74.0032V72.8255H447.581V74.0032V75.1808H461.326V74.0032ZM447.581 74.0032H448.759V69.9251H447.581H446.403V74.0032H447.581ZM447.581 69.9251V71.1027H461.326V69.9251V68.7474H447.581V69.9251ZM484.905 74.0032H483.727V75.1808H484.905V74.0032ZM484.905 44.318V43.1403H483.727V44.318H484.905ZM489.148 62.9902V61.8126H487.971V62.9902H489.148ZM489.148 74.0032V75.1808H490.326V74.0032H489.148ZM489.148 58.7465H487.971V59.9242H489.148V58.7465ZM489.148 48.5617V47.384H487.971V48.5617H489.148ZM484.905 74.0032H486.082V44.318H484.905H483.727V74.0032H484.905ZM484.905 44.318V45.4956H501.155V44.318V43.1403H484.905V44.318ZM501.155 44.318V45.4956C503.374 45.4956 504.822 46.051 505.724 46.9557C506.627 47.8609 507.181 49.3151 507.181 51.5426H508.359H509.537C509.537 48.9537 508.891 46.7956 507.392 45.2926C505.893 43.789 503.739 43.1403 501.155 43.1403V44.318ZM508.359 51.5426H507.181V55.7656H508.359H509.537V51.5426H508.359ZM508.359 55.7656H507.181C507.181 57.9931 506.627 59.4473 505.724 60.3526C504.822 61.2572 503.374 61.8126 501.155 61.8126V62.9902V64.1679C503.739 64.1679 505.893 63.5192 507.392 62.0156C508.891 60.5126 509.537 58.3545 509.537 55.7656H508.359ZM501.155 62.9902V61.8126H489.148V62.9902V64.1679H501.155V62.9902ZM489.148 62.9902H487.971V74.0032H489.148H490.326V62.9902H489.148ZM489.148 74.0032V72.8255H484.905V74.0032V75.1808H489.148V74.0032ZM489.148 58.7465V59.9242H500.927V58.7465V57.5689H489.148V58.7465ZM500.927 58.7465V59.9242C502.188 59.9242 503.383 59.6541 504.203 58.834L503.37 58.0013L502.537 57.1686C502.364 57.3422 501.93 57.5689 500.927 57.5689V58.7465ZM503.37 58.0013L504.203 58.834C505.023 58.014 505.293 56.8196 505.293 55.5586H504.115H502.938C502.938 56.5609 502.711 56.995 502.537 57.1686L503.37 58.0013ZM504.115 55.5586H505.293V51.7496H504.115H502.938V55.5586H504.115ZM504.115 51.7496H505.293C505.293 50.4886 505.023 49.2942 504.203 48.4742L503.37 49.3069L502.537 50.1396C502.711 50.3132 502.938 50.7473 502.938 51.7496H504.115ZM503.37 49.3069L504.203 48.4742C503.383 47.6541 502.188 47.384 500.927 47.384V48.5617V49.7393C501.93 49.7393 502.364 49.966 502.537 50.1396L503.37 49.3069ZM500.927 48.5617V47.384H489.148V48.5617V49.7393H500.927V48.5617ZM489.148 48.5617H487.971V58.7465H489.148H490.326V48.5617H489.148ZM517.944 43.4692H519.121V42.2916H517.944V43.4692ZM517.944 74.0032V75.1808H519.121V74.0032H517.944ZM513.886 74.0032H512.708V75.1808H513.886V74.0032ZM513.886 43.4692V42.2916H512.708V43.4692H513.886ZM517.944 43.4692H516.766V74.0032H517.944H519.121V43.4692H517.944ZM517.944 74.0032V72.8255H513.886V74.0032V75.1808H517.944V74.0032ZM513.886 74.0032H515.064V43.4692H513.886H512.708V74.0032H513.886ZM513.886 43.4692V44.6469H517.944V43.4692V42.2916H513.886V43.4692ZM525.044 62.8039L523.968 62.3256L523.965 62.3328L523.962 62.34L525.044 62.8039ZM525.913 61.4998L525.081 60.667L525.073 60.6749L525.065 60.6829L525.913 61.4998ZM527.218 60.6303L527.671 61.7174L527.683 61.7121L527.696 61.7065L527.218 60.6303ZM539.307 60.2991V61.4768H540.485V60.2991H539.307ZM539.307 56.0347H540.485V54.8571H539.307V56.0347ZM525.996 56.0347H524.819V57.2124H525.996V56.0347ZM525.996 51.9566V50.779H524.819V51.9566H525.996ZM540.901 52.2878L540.423 53.364L540.435 53.3696L540.448 53.3749L540.901 52.2878ZM542.184 53.1573L541.336 53.9742L541.352 53.9902L541.368 54.0056L542.184 53.1573ZM543.054 54.4407L541.967 54.8937L541.972 54.9064L541.978 54.919L543.054 54.4407ZM543.385 74.0032V75.1808H544.563V74.0032H543.385ZM539.307 74.0032H538.129V75.1808H539.307V74.0032ZM539.307 70.277H540.485L538.133 70.1818L539.307 70.277ZM537.982 72.9267L538.781 73.7921L538.782 73.7908L537.982 72.9267ZM527.218 73.6927L526.739 74.7688L526.752 74.7744L526.765 74.7797L527.218 73.6927ZM525.913 72.8232L525.065 73.6401L525.081 73.6561L525.097 73.6715L525.913 72.8232ZM525.044 71.5191L523.957 71.972L523.962 71.9847L523.968 71.9973L525.044 71.5191ZM528.791 69.9251H527.613V71.1027H528.791V69.9251ZM539.307 69.9251V71.1027H540.485V69.9251H539.307ZM539.307 64.3772H540.485V63.1996H539.307V64.3772ZM528.791 64.3772V63.1996H527.613V64.3772H528.791ZM524.733 64.3772H525.911C525.911 63.9585 525.987 63.5933 526.126 63.2678L525.044 62.8039L523.962 62.34C523.687 62.9806 523.556 63.6643 523.556 64.3772H524.733ZM525.044 62.8039L526.12 63.2822C526.288 62.9042 526.503 62.5856 526.762 62.3166L525.913 61.4998L525.065 60.6829C524.606 61.1592 524.241 61.71 523.968 62.3256L525.044 62.8039ZM525.913 61.4998L526.746 62.3325C527.008 62.071 527.313 61.8665 527.671 61.7174L527.218 60.6303L526.765 59.5433C526.129 59.8081 525.564 60.1833 525.081 60.667L525.913 61.4998ZM527.218 60.6303L527.696 61.7065C528.04 61.5537 528.401 61.4768 528.791 61.4768V60.2991V59.1215C528.077 59.1215 527.389 59.2654 526.739 59.5542L527.218 60.6303ZM528.791 60.2991V61.4768H539.307V60.2991V59.1215H528.791V60.2991ZM539.307 60.2991H540.485V56.0347H539.307H538.129V60.2991H539.307ZM539.307 56.0347V54.8571H525.996V56.0347V57.2124H539.307V56.0347ZM525.996 56.0347H527.174V51.9566H525.996H524.819V56.0347H525.996ZM525.996 51.9566V53.1343H539.307V51.9566V50.779H525.996V51.9566ZM539.307 51.9566V53.1343C539.715 53.1343 540.083 53.2128 540.423 53.364L540.901 52.2878L541.379 51.2117C540.726 50.9212 540.031 50.779 539.307 50.779V51.9566ZM540.901 52.2878L540.448 53.3749C540.802 53.5224 541.094 53.7224 541.336 53.9742L542.184 53.1573L543.033 52.3404C542.557 51.8469 541.993 51.4673 541.354 51.2008L540.901 52.2878ZM542.184 53.1573L541.368 54.0056C541.619 54.248 541.819 54.5396 541.967 54.8937L543.054 54.4407L544.141 53.9878C543.874 53.3482 543.495 52.7842 543.001 52.309L542.184 53.1573ZM543.054 54.4407L541.978 54.919C542.129 55.2591 542.207 55.6268 542.207 56.0347H543.385H544.563C544.563 55.311 544.42 54.616 544.13 53.9624L543.054 54.4407ZM543.385 56.0347H542.207V74.0032H543.385H544.563V56.0347H543.385ZM543.385 74.0032V72.8255H539.307V74.0032V75.1808H543.385V74.0032ZM539.307 74.0032H540.485V70.277H539.307H538.129V74.0032H539.307ZM539.307 70.277L538.133 70.1818C538.104 70.5375 538.009 70.8695 537.846 71.1867L538.893 71.7261L539.94 72.2654C540.246 71.6717 540.427 71.0378 540.481 70.3722L539.307 70.277ZM538.893 71.7261L537.846 71.1867C537.674 71.5215 537.453 71.8115 537.182 72.0626L537.982 72.9267L538.782 73.7908C539.256 73.3519 539.643 72.8415 539.94 72.2654L538.893 71.7261ZM537.982 72.9267L537.183 72.0614C536.931 72.2942 536.637 72.4823 536.292 72.6244L536.74 73.7134L537.188 74.8023C537.782 74.558 538.315 74.2217 538.781 73.7921L537.982 72.9267ZM536.74 73.7134L536.292 72.6244C535.969 72.7571 535.625 72.8255 535.25 72.8255V74.0032V75.1808C535.923 75.1808 536.572 75.0561 537.188 74.8023L536.74 73.7134ZM535.25 74.0032V72.8255H528.791V74.0032V75.1808H535.25V74.0032ZM528.791 74.0032V72.8255C528.39 72.8255 528.02 72.7513 527.671 72.6056L527.218 73.6927L526.765 74.7797C527.409 75.0481 528.087 75.1808 528.791 75.1808V74.0032ZM527.218 73.6927L527.696 72.6165C527.318 72.4485 526.999 72.2339 526.73 71.9749L525.913 72.8232L525.097 73.6715C525.573 74.1302 526.124 74.4952 526.739 74.7688L527.218 73.6927ZM525.913 72.8232L526.762 72.0063C526.503 71.7374 526.288 71.4188 526.12 71.0408L525.044 71.5191L523.968 71.9973C524.241 72.613 524.606 73.1638 525.065 73.6401L525.913 72.8232ZM525.044 71.5191L526.131 71.0661C525.987 70.7201 525.911 70.3435 525.911 69.9251H524.733H523.556C523.556 70.6383 523.687 71.3244 523.957 71.972L525.044 71.5191ZM524.733 69.9251H525.911V64.3772H524.733H523.556V69.9251H524.733ZM528.791 69.9251V71.1027H539.307V69.9251V68.7474H528.791V69.9251ZM539.307 69.9251H540.485V64.3772H539.307H538.129V69.9251H539.307ZM539.307 64.3772V63.1996H528.791V64.3772V65.5549H539.307V64.3772ZM528.791 64.3772H527.613V69.9251H528.791H529.969V64.3772H528.791ZM548.912 51.9566V50.779H547.735V51.9566H548.912ZM554.294 51.9566V53.1343H555.472V51.9566H554.294ZM554.294 45.1667V43.989H553.117V45.1667H554.294ZM558.373 45.1667H559.55V43.989H558.373V45.1667ZM558.373 51.9566H557.195V53.1343H558.373V51.9566ZM565.618 51.9566H566.796V50.779H565.618V51.9566ZM565.618 56.0347V57.2124H566.796V56.0347H565.618ZM558.373 56.0347V54.8571H557.195V56.0347H558.373ZM558.373 69.9251H557.195V71.1027H558.373V69.9251ZM565.618 69.9251H566.796V68.7474H565.618V69.9251ZM565.618 74.0032V75.1808H566.796V74.0032H565.618ZM556.799 73.6927L556.321 74.7688L556.334 74.7744L556.346 74.7797L556.799 73.6927ZM555.495 72.8232L554.662 73.6559L554.67 73.6638L554.678 73.6715L555.495 72.8232ZM554.605 71.5191L553.518 71.972L553.523 71.9847L553.529 71.9973L554.605 71.5191ZM554.294 56.0347H555.472V54.8571H554.294V56.0347ZM548.912 56.0347H547.735V57.2124H548.912V56.0347ZM548.912 51.9566V53.1343H554.294V51.9566V50.779H548.912V51.9566ZM554.294 51.9566H555.472V45.1667H554.294H553.117V51.9566H554.294ZM554.294 45.1667V46.3444H558.373V45.1667V43.989H554.294V45.1667ZM558.373 45.1667H557.195V51.9566H558.373H559.55V45.1667H558.373ZM558.373 51.9566V53.1343H565.618V51.9566V50.779H558.373V51.9566ZM565.618 51.9566H564.44V56.0347H565.618H566.796V51.9566H565.618ZM565.618 56.0347V54.8571H558.373V56.0347V57.2124H565.618V56.0347ZM558.373 56.0347H557.195V69.9251H558.373H559.55V56.0347H558.373ZM558.373 69.9251V71.1027H565.618V69.9251V68.7474H558.373V69.9251ZM565.618 69.9251H564.44V74.0032H565.618H566.796V69.9251H565.618ZM565.618 74.0032V72.8255H558.373V74.0032V75.1808H565.618V74.0032ZM558.373 74.0032V72.8255C557.972 72.8255 557.602 72.7513 557.252 72.6056L556.799 73.6927L556.346 74.7797C556.99 75.0481 557.669 75.1808 558.373 75.1808V74.0032ZM556.799 73.6927L557.278 72.6165C556.9 72.4485 556.581 72.2339 556.312 71.9749L555.495 72.8232L554.678 73.6715C555.155 74.1302 555.705 74.4952 556.321 74.7688L556.799 73.6927ZM555.495 72.8232L556.328 71.9905C556.061 71.7233 555.845 71.4098 555.681 71.0408L554.605 71.5191L553.529 71.9973C553.806 72.622 554.184 73.1779 554.662 73.6559L555.495 72.8232ZM554.605 71.5191L555.692 71.0661C555.548 70.7201 555.472 70.3435 555.472 69.9251H554.294H553.117C553.117 70.6383 553.248 71.3244 553.518 71.972L554.605 71.5191ZM554.294 69.9251H555.472V56.0347H554.294H553.117V69.9251H554.294ZM554.294 56.0347V54.8571H548.912V56.0347V57.2124H554.294V56.0347ZM548.912 56.0347H550.09V51.9566H548.912H547.735V56.0347H548.912ZM580.605 47.5473V46.3697H579.428V47.5473H580.605ZM580.605 51.9566H579.428V53.1343H580.605V51.9566ZM587.851 51.9566H589.028V50.779H587.851V51.9566ZM587.851 56.0347V57.2124H589.028V56.0347H587.851ZM580.605 56.0347V54.8571H579.428V56.0347H580.605ZM580.605 74.0032V75.1808H581.783V74.0032H580.605ZM576.527 74.0032H575.35V75.1808H576.527V74.0032ZM576.527 56.0347H577.705V54.8571H576.527V56.0347ZM571.145 56.0347H569.967V57.2124H571.145V56.0347ZM571.145 51.9566V50.779H569.967V51.9566H571.145ZM576.527 51.9566V53.1343H577.705V51.9566H576.527ZM576.838 45.974L575.762 45.4957L575.758 45.5029L575.755 45.5101L576.838 45.974ZM579.032 43.8004L579.485 44.8875L579.498 44.8822L579.51 44.8766L579.032 43.8004ZM587.851 43.4692H589.028V42.2916H587.851V43.4692ZM587.851 47.5473V48.725H589.028V47.5473H587.851ZM580.605 47.5473H579.428V51.9566H580.605H581.783V47.5473H580.605ZM580.605 51.9566V53.1343H587.851V51.9566V50.779H580.605V51.9566ZM587.851 51.9566H586.673V56.0347H587.851H589.028V51.9566H587.851ZM587.851 56.0347V54.8571H580.605V56.0347V57.2124H587.851V56.0347ZM580.605 56.0347H579.428V74.0032H580.605H581.783V56.0347H580.605ZM580.605 74.0032V72.8255H576.527V74.0032V75.1808H580.605V74.0032ZM576.527 74.0032H577.705V56.0347H576.527H575.35V74.0032H576.527ZM576.527 56.0347V54.8571H571.145V56.0347V57.2124H576.527V56.0347ZM571.145 56.0347H572.323V51.9566H571.145H569.967V56.0347H571.145ZM571.145 51.9566V53.1343H576.527V51.9566V50.779H571.145V51.9566ZM576.527 51.9566H577.705V47.5473H576.527H575.35V51.9566H576.527ZM576.527 47.5473H577.705C577.705 47.1286 577.781 46.7634 577.92 46.4379L576.838 45.974L575.755 45.5101C575.481 46.1507 575.35 46.8344 575.35 47.5473H576.527ZM576.838 45.974L577.914 46.4523C578.078 46.0833 578.294 45.7698 578.561 45.5026L577.728 44.6699L576.895 43.8371C576.417 44.3152 576.039 44.8711 575.762 45.4957L576.838 45.974ZM577.728 44.6699L578.561 45.5026C578.822 45.2411 579.127 45.0366 579.485 44.8875L579.032 43.8004L578.579 42.7134C577.943 42.9782 577.379 43.3534 576.895 43.8371L577.728 44.6699ZM579.032 43.8004L579.51 44.8766C579.854 44.7237 580.216 44.6469 580.605 44.6469V43.4692V42.2916C579.891 42.2916 579.204 42.4355 578.554 42.7243L579.032 43.8004ZM580.605 43.4692V44.6469H587.851V43.4692V42.2916H580.605V43.4692ZM587.851 43.4692H586.673V47.5473H587.851H589.028V43.4692H587.851ZM587.851 47.5473V46.3697H580.605V47.5473V48.725H587.851V47.5473ZM612.112 71.5191L611.036 71.0408L611.031 71.0534L611.025 71.0661L612.112 71.5191ZM609.959 73.6927L610.423 74.7751L610.431 74.772L610.438 74.7688L609.959 73.6927ZM595.862 73.6927L595.384 74.7688L595.396 74.7744L595.409 74.7797L595.862 73.6927ZM594.558 72.8232L593.71 73.6401L593.725 73.6561L593.741 73.6715L594.558 72.8232ZM593.688 71.5191L592.601 71.972L592.607 71.9847L592.612 71.9973L593.688 71.5191ZM593.688 54.4407L592.612 53.9624L592.607 53.9751L592.601 53.9878L593.688 54.4407ZM595.862 52.2878L596.315 53.3749L596.328 53.3696L596.34 53.364L595.862 52.2878ZM609.959 52.2878L609.47 53.3589L609.488 53.3672L609.506 53.3749L609.959 52.2878ZM611.243 53.1573L610.395 53.9742L610.41 53.9902L610.426 54.0056L611.243 53.1573ZM612.112 54.4407L611.025 54.8937L611.031 54.9064L611.036 54.919L612.112 54.4407ZM597.435 56.0347V54.8571H596.258V56.0347H597.435ZM597.435 69.9251H596.258V71.1027H597.435V69.9251ZM608.386 69.9251V71.1027H609.564V69.9251H608.386ZM608.386 56.0347H609.564V54.8571H608.386V56.0347ZM612.444 69.9251H611.266C611.266 70.333 611.187 70.7007 611.036 71.0408L612.112 71.5191L613.188 71.9973C613.479 71.3438 613.621 70.6488 613.621 69.9251H612.444ZM612.112 71.5191L611.025 71.0661C610.876 71.4241 610.672 71.729 610.41 71.9905L611.243 72.8232L612.076 73.6559C612.559 73.1722 612.935 72.6077 613.199 71.972L612.112 71.5191ZM611.243 72.8232L610.41 71.9905C610.161 72.24 609.855 72.4502 609.481 72.6165L609.959 73.6927L610.438 74.7688C611.057 74.4935 611.607 74.1241 612.076 73.6559L611.243 72.8232ZM609.959 73.6927L609.496 72.6102C609.17 72.7497 608.805 72.8255 608.386 72.8255V74.0032V75.1808C609.099 75.1808 609.783 75.0496 610.423 74.7751L609.959 73.6927ZM608.386 74.0032V72.8255H597.435V74.0032V75.1808H608.386V74.0032ZM597.435 74.0032V72.8255C597.035 72.8255 596.665 72.7513 596.315 72.6056L595.862 73.6927L595.409 74.7797C596.053 75.0481 596.732 75.1808 597.435 75.1808V74.0032ZM595.862 73.6927L596.34 72.6165C595.962 72.4485 595.644 72.2339 595.375 71.9749L594.558 72.8232L593.741 73.6715C594.217 74.1302 594.768 74.4952 595.384 74.7688L595.862 73.6927ZM594.558 72.8232L595.406 72.0063C595.147 71.7374 594.933 71.4188 594.765 71.0408L593.688 71.5191L592.612 71.9973C592.886 72.613 593.251 73.1638 593.71 73.6401L594.558 72.8232ZM593.688 71.5191L594.776 71.0661C594.631 70.7201 594.556 70.3435 594.556 69.9251H593.378H592.2C592.2 70.6383 592.332 71.3244 592.601 71.972L593.688 71.5191ZM593.378 69.9251H594.556V56.0347H593.378H592.2V69.9251H593.378ZM593.378 56.0347H594.556C594.556 55.6163 594.631 55.2397 594.776 54.8937L593.688 54.4407L592.601 53.9878C592.332 54.6354 592.2 55.3215 592.2 56.0347H593.378ZM593.688 54.4407L594.765 54.919C594.931 54.5448 595.141 54.2395 595.391 53.99L594.558 53.1573L593.725 52.3246C593.257 52.7927 592.888 53.343 592.612 53.9624L593.688 54.4407ZM594.558 53.1573L595.391 53.99C595.652 53.7285 595.957 53.524 596.315 53.3749L595.862 52.2878L595.409 51.2008C594.773 51.4656 594.209 51.8408 593.725 52.3246L594.558 53.1573ZM595.862 52.2878L596.34 53.364C596.684 53.2112 597.045 53.1343 597.435 53.1343V51.9566V50.779C596.721 50.779 596.034 50.9229 595.384 51.2117L595.862 52.2878ZM597.435 51.9566V53.1343H608.386V51.9566V50.779H597.435V51.9566ZM608.386 51.9566V53.1343C608.794 53.1343 609.15 53.2129 609.47 53.3589L609.959 52.2878L610.449 51.2168C609.802 50.9212 609.11 50.779 608.386 50.779V51.9566ZM609.959 52.2878L609.506 53.3749C609.861 53.5224 610.152 53.7224 610.395 53.9742L611.243 53.1573L612.091 52.3404C611.616 51.8469 611.052 51.4673 610.412 51.2008L609.959 52.2878ZM611.243 53.1573L610.426 54.0056C610.678 54.248 610.878 54.5396 611.025 54.8937L612.112 54.4407L613.199 53.9878C612.933 53.3482 612.553 52.7842 612.06 52.309L611.243 53.1573ZM612.112 54.4407L611.036 54.919C611.187 55.2591 611.266 55.6268 611.266 56.0347H612.444H613.621C613.621 55.311 613.479 54.616 613.188 53.9624L612.112 54.4407ZM612.444 56.0347H611.266V69.9251H612.444H613.621V56.0347H612.444ZM597.435 56.0347H596.258V69.9251H597.435H598.613V56.0347H597.435ZM597.435 69.9251V71.1027H608.386V69.9251V68.7474H597.435V69.9251ZM608.386 69.9251H609.564V56.0347H608.386H607.208V69.9251H608.386ZM608.386 56.0347V54.8571H597.435V56.0347V57.2124H608.386V56.0347ZM623.312 56.0347V54.8571H622.134V56.0347H623.312ZM623.312 74.0032V75.1808H624.489V74.0032H623.312ZM619.254 74.0032H618.076V75.1808H619.254V74.0032ZM619.254 51.9566V50.779H618.076V51.9566H619.254ZM623.312 51.9566H624.489V50.779H623.312V51.9566ZM623.312 55.8484H622.134L624.488 55.9087L623.312 55.8484ZM623.684 54.3372L624.75 54.8387L624.755 54.8269L623.684 54.3372ZM624.554 53.0952L625.37 53.9441L625.37 53.9435L624.554 53.0952ZM625.837 52.2671L626.274 53.3606L626.288 53.3552L626.301 53.3496L625.837 52.2671ZM633.289 52.2878L632.8 53.3589L632.818 53.3672L632.836 53.3749L633.289 52.2878ZM634.594 53.1573L633.761 53.99L633.769 53.9979L633.777 54.0056L634.594 53.1573ZM635.463 54.4407L634.376 54.8937L634.381 54.9064L634.387 54.919L635.463 54.4407ZM635.794 59.7609V60.9386H636.972V59.7609H635.794ZM631.716 59.7609H630.538V60.9386H631.716V59.7609ZM631.716 56.0347H632.894V54.8571H631.716V56.0347ZM623.312 56.0347H622.134V74.0032H623.312H624.489V56.0347H623.312ZM623.312 74.0032V72.8255H619.254V74.0032V75.1808H623.312V74.0032ZM619.254 74.0032H620.432V51.9566H619.254H618.076V74.0032H619.254ZM619.254 51.9566V53.1343H623.312V51.9566V50.779H619.254V51.9566ZM623.312 51.9566H622.134V55.8484H623.312H624.489V51.9566H623.312ZM623.312 55.8484L624.488 55.9087C624.508 55.5172 624.597 55.164 624.75 54.8387L623.684 54.3372L622.619 53.8358C622.33 54.4489 622.171 55.1032 622.135 55.7881L623.312 55.8484ZM623.684 54.3372L624.755 54.8269C624.919 54.4694 625.125 54.1797 625.37 53.9441L624.554 53.0952L623.737 52.2463C623.265 52.7007 622.891 53.239 622.613 53.8476L623.684 54.3372ZM624.554 53.0952L625.37 53.9435C625.633 53.6907 625.932 53.4976 626.274 53.3606L625.837 52.2671L625.4 51.1737C624.776 51.423 624.219 51.782 623.737 52.2469L624.554 53.0952ZM625.837 52.2671L626.301 53.3496C626.63 53.2085 626.989 53.1343 627.39 53.1343V51.9566V50.779C626.686 50.779 626.01 50.9117 625.373 51.1847L625.837 52.2671ZM627.39 51.9566V53.1343H631.716V51.9566V50.779H627.39V51.9566ZM631.716 51.9566V53.1343C632.124 53.1343 632.48 53.2129 632.8 53.3589L633.289 52.2878L633.779 51.2168C633.132 50.9212 632.44 50.779 631.716 50.779V51.9566ZM633.289 52.2878L632.836 53.3749C633.194 53.524 633.499 53.7285 633.761 53.99L634.594 53.1573L635.426 52.3246C634.943 51.8408 634.378 51.4656 633.742 51.2008L633.289 52.2878ZM634.594 53.1573L633.777 54.0056C634.028 54.248 634.228 54.5396 634.376 54.8937L635.463 54.4407L636.55 53.9878C636.284 53.3482 635.904 52.7842 635.41 52.309L634.594 53.1573ZM635.463 54.4407L634.387 54.919C634.538 55.2591 634.617 55.6268 634.617 56.0347H635.794H636.972C636.972 55.311 636.83 54.616 636.539 53.9624L635.463 54.4407ZM635.794 56.0347H634.617V59.7609H635.794H636.972V56.0347H635.794ZM635.794 59.7609V58.5832H631.716V59.7609V60.9386H635.794V59.7609ZM631.716 59.7609H632.894V56.0347H631.716H630.538V59.7609H631.716ZM631.716 56.0347V54.8571H623.312V56.0347V57.2124H631.716V56.0347ZM658.338 56.0347V54.8571H657.16V56.0347H658.338ZM658.338 74.0032V75.1808H659.515V74.0032H658.338ZM654.26 74.0032H653.082V75.1808H654.26V74.0032ZM654.26 56.0347H655.437V54.8571H654.26V56.0347ZM644.923 56.0347V54.8571H643.746V56.0347H644.923ZM644.923 74.0032V75.1808H646.101V74.0032H644.923ZM640.866 74.0032H639.688V75.1808H640.866V74.0032ZM640.866 51.9566V50.779H639.688V51.9566H640.866ZM644.923 51.9566H646.101V50.779H644.923V51.9566ZM644.923 55.8484H643.746L646.1 55.9087L644.923 55.8484ZM645.296 54.3372L646.362 54.8387L646.367 54.8269L645.296 54.3372ZM646.165 53.0952L646.982 53.9441L646.982 53.9435L646.165 53.0952ZM647.449 52.2671L647.886 53.3606L647.9 53.3552L647.913 53.3496L647.449 52.2671ZM655.791 52.2671L655.328 53.3496L655.341 53.3552L655.354 53.3606L655.791 52.2671ZM657.075 53.0952L656.258 53.9435L656.266 53.9515L656.275 53.9593L657.075 53.0952ZM657.965 54.3372L656.894 54.8269L656.903 54.8455L656.912 54.8639L657.965 54.3372ZM658.338 55.8484L657.16 55.8786L659.514 55.9087L658.338 55.8484ZM658.69 54.3372L657.619 53.8476L657.615 53.8547L657.612 53.8619L658.69 54.3372ZM659.559 53.0952L660.375 53.9441L660.376 53.9435L659.559 53.0952ZM660.842 52.2671L661.28 53.3606L661.293 53.3552L661.306 53.3496L660.842 52.2671ZM669.247 52.2878L668.769 53.364L668.781 53.3696L668.794 53.3749L669.247 52.2878ZM670.531 53.1573L669.682 53.9742L669.698 53.9902L669.714 54.0056L670.531 53.1573ZM671.4 54.4407L670.313 54.8937L670.318 54.9064L670.324 54.919L671.4 54.4407ZM671.731 74.0032V75.1808H672.909V74.0032H671.731ZM667.653 74.0032H666.475V75.1808H667.653V74.0032ZM667.653 56.0347H668.831V54.8571H667.653V56.0347ZM658.338 56.0347H657.16V74.0032H658.338H659.515V56.0347H658.338ZM658.338 74.0032V72.8255H654.26V74.0032V75.1808H658.338V74.0032ZM654.26 74.0032H655.437V56.0347H654.26H653.082V74.0032H654.26ZM654.26 56.0347V54.8571H644.923V56.0347V57.2124H654.26V56.0347ZM644.923 56.0347H643.746V74.0032H644.923H646.101V56.0347H644.923ZM644.923 74.0032V72.8255H640.866V74.0032V75.1808H644.923V74.0032ZM640.866 74.0032H642.044V51.9566H640.866H639.688V74.0032H640.866ZM640.866 51.9566V53.1343H644.923V51.9566V50.779H640.866V51.9566ZM644.923 51.9566H643.746V55.8484H644.923H646.101V51.9566H644.923ZM644.923 55.8484L646.1 55.9087C646.12 55.5172 646.208 55.164 646.362 54.8387L645.296 54.3372L644.23 53.8358C643.942 54.4489 643.782 55.1032 643.747 55.7881L644.923 55.8484ZM645.296 54.3372L646.367 54.8269C646.53 54.4694 646.737 54.1797 646.982 53.9441L646.165 53.0952L645.349 52.2463C644.877 52.7007 644.503 53.239 644.225 53.8476L645.296 54.3372ZM646.165 53.0952L646.982 53.9435C647.245 53.6907 647.544 53.4976 647.886 53.3606L647.449 52.2671L647.012 51.1737C646.388 51.423 645.831 51.782 645.349 52.2469L646.165 53.0952ZM647.449 52.2671L647.913 53.3496C648.242 53.2085 648.601 53.1343 649.001 53.1343V51.9566V50.779C648.298 50.779 647.622 50.9117 646.985 51.1847L647.449 52.2671ZM649.001 51.9566V53.1343H654.26V51.9566V50.779H649.001V51.9566ZM654.26 51.9566V53.1343C654.642 53.1343 654.995 53.2069 655.328 53.3496L655.791 52.2671L656.255 51.1847C655.622 50.9133 654.953 50.779 654.26 50.779V51.9566ZM655.791 52.2671L655.354 53.3606C655.697 53.4976 655.996 53.6907 656.258 53.9435L657.075 53.0952L657.892 52.2469C657.409 51.782 656.852 51.423 656.229 51.1737L655.791 52.2671ZM657.075 53.0952L656.275 53.9593C656.528 54.1938 656.735 54.4787 656.894 54.8269L657.965 54.3372L659.036 53.8476C658.754 53.2297 658.367 52.6866 657.875 52.2311L657.075 53.0952ZM657.965 54.3372L656.912 54.8639C657.067 55.1746 657.151 55.5083 657.16 55.8786L658.338 55.8484L659.515 55.8182C659.497 55.1121 659.332 54.4383 659.018 53.8106L657.965 54.3372ZM658.338 55.8484L659.514 55.9087C659.534 55.5063 659.621 55.144 659.767 54.8126L658.69 54.3372L657.612 53.8619C657.344 54.4689 657.196 55.114 657.162 55.7881L658.338 55.8484ZM658.69 54.3372L659.761 54.8269C659.924 54.4694 660.13 54.1797 660.375 53.9441L659.559 53.0952L658.743 52.2463C658.27 52.7007 657.897 53.239 657.619 53.8476L658.69 54.3372ZM659.559 53.0952L660.376 53.9435C660.638 53.6907 660.937 53.4976 661.28 53.3606L660.842 52.2671L660.405 51.1737C659.782 51.423 659.225 51.782 658.742 52.2469L659.559 53.0952ZM660.842 52.2671L661.306 53.3496C661.635 53.2085 661.994 53.1343 662.395 53.1343V51.9566V50.779C661.692 50.779 661.016 50.9117 660.379 51.1847L660.842 52.2671ZM662.395 51.9566V53.1343H667.653V51.9566V50.779H662.395V51.9566ZM667.653 51.9566V53.1343C668.061 53.1343 668.429 53.2128 668.769 53.364L669.247 52.2878L669.725 51.2117C669.072 50.9212 668.377 50.779 667.653 50.779V51.9566ZM669.247 52.2878L668.794 53.3749C669.148 53.5224 669.44 53.7224 669.682 53.9742L670.531 53.1573L671.379 52.3404C670.904 51.8469 670.34 51.4673 669.7 51.2008L669.247 52.2878ZM670.531 53.1573L669.714 54.0056C669.965 54.248 670.165 54.5396 670.313 54.8937L671.4 54.4407L672.487 53.9878C672.221 53.3482 671.841 52.7842 671.347 52.309L670.531 53.1573ZM671.4 54.4407L670.324 54.919C670.475 55.2591 670.554 55.6268 670.554 56.0347H671.731H672.909C672.909 55.311 672.767 54.616 672.476 53.9624L671.4 54.4407ZM671.731 56.0347H670.554V74.0032H671.731H672.909V56.0347H671.731ZM671.731 74.0032V72.8255H667.653V74.0032V75.1808H671.731V74.0032ZM667.653 74.0032H668.831V56.0347H667.653H666.475V74.0032H667.653ZM667.653 56.0347V54.8571H658.338V56.0347V57.2124H667.653V56.0347Z" fill="#EDC702"/>
<path d="M1920 21.5605H1861.2H1802.41" stroke="#475671" stroke-width="2"/>
<path d="M1551 38.5532L1568.74 21.5605H1598.13H1627.53" stroke="#475671" stroke-width="2"/>
<defs>
<linearGradient id="paint0_linear_259_380" x1="-2.31708" y1="59.6412" x2="1501.53" y2="59.6412" gradientUnits="userSpaceOnUse">
<stop stop-color="#52729F"/>
<stop offset="0.410161" stop-color="#324662"/>
<stop offset="1" stop-color="#1D2939"/>
</linearGradient>
<linearGradient id="paint1_linear_259_380" x1="2704.75" y1="59.6425" x2="1691.68" y2="59.6425" gradientUnits="userSpaceOnUse">
<stop stop-color="#52729F"/>
<stop offset="1" stop-color="#1D2939"/>
</linearGradient>
<linearGradient id="paint2_linear_259_380" x1="80.0908" y1="-1.36694" x2="80.0908" y2="93.0032" gradientUnits="userSpaceOnUse">
<stop stop-color="white"/>
<stop offset="1" stop-color="#819DBF"/>
</linearGradient>
</defs>
</svg>
