<svg width="46" height="46" viewBox="0 0 46 46" fill="none" xmlns="http://www.w3.org/2000/svg">
<path d="M10.0625 21.5625H38.8125C39.1937 21.5625 39.5594 21.714 39.829 21.9835C40.0986 22.2531 40.25 22.6188 40.25 23C40.25 23.3812 40.0986 23.7469 39.829 24.0165C39.5594 24.2861 39.1937 24.4375 38.8125 24.4375H10.0625C9.68125 24.4375 9.31562 24.2861 9.04603 24.0165C8.77645 23.7469 8.625 23.3812 8.625 23C8.625 22.6188 8.77645 22.2531 9.04603 21.9835C9.31562 21.714 9.68125 21.5625 10.0625 21.5625Z" fill="#EDC702"/>
<path d="M10.6573 22.9999L22.5799 34.9196C22.8498 35.1895 23.0015 35.5556 23.0015 35.9374C23.0015 36.3191 22.8498 36.6852 22.5799 36.9551C22.31 37.225 21.9439 37.3767 21.5621 37.3767C21.1804 37.3767 20.8143 37.225 20.5444 36.9551L7.60689 24.0176C7.47302 23.8841 7.36681 23.7254 7.29434 23.5508C7.22187 23.3762 7.18457 23.1889 7.18457 22.9999C7.18457 22.8108 7.22187 22.6236 7.29434 22.4489C7.36681 22.2743 7.47302 22.1156 7.60689 21.9821L20.5444 9.04461C20.8143 8.77469 21.1804 8.62305 21.5621 8.62305C21.9439 8.62305 22.31 8.77469 22.5799 9.04461C22.8498 9.31454 23.0015 9.68063 23.0015 10.0624C23.0015 10.4441 22.8498 10.8102 22.5799 11.0801L10.6573 22.9999Z" fill="#EDC702"/>
</svg>
