<svg width="171" height="171" viewBox="0 0 171 171" fill="none" xmlns="http://www.w3.org/2000/svg">
<path d="M154.819 80.0755H133.464C132.049 80.0755 130.691 80.638 129.69 81.6392C128.688 82.6403 128.126 83.9982 128.126 85.4141V96.0913C128.126 97.5071 128.688 98.865 129.69 99.8662C130.691 100.867 132.049 101.43 133.464 101.43H144.142C145.557 101.43 146.915 101.992 147.917 102.993C148.918 103.995 149.48 105.353 149.48 106.768V117.446C149.48 118.861 148.918 120.219 147.917 121.221C146.915 122.222 145.557 122.784 144.142 122.784H122.787M48.0472 74.7369C48.0472 77.4062 56.0551 89.418 64.0629 101.43M64.0629 101.43C72.0708 113.442 80.0787 125.453 80.0787 128.123M64.0629 101.43C56.0551 113.442 48.0472 125.453 48.0472 128.123M64.0629 101.43C72.0708 89.418 80.0787 77.4062 80.0787 74.7369M112.11 122.784H96.0944V74.7369M122.787 144.138V154.816H26.6929V16.0126H90.7558M90.7558 16.0126V48.044H122.787M90.7558 16.0126H96.0944L122.787 42.7055V48.044M122.787 48.044V64.0598" stroke="white" stroke-width="7.0206" stroke-linejoin="round"/>
</svg>
