<svg width="86" height="86" viewBox="0 0 86 86" fill="none" xmlns="http://www.w3.org/2000/svg">
<path d="M68.2614 17.5947C64.9757 14.2769 61.0626 11.6462 56.75 9.85598C52.4374 8.06574 47.8116 7.15172 43.1422 7.16719C23.5772 7.16719 7.63139 23.113 7.63139 42.678C7.63139 48.9489 9.27973 55.0405 12.3614 60.4155L7.34473 78.8338L26.1572 73.8889C31.3531 76.7197 37.1939 78.2247 43.1422 78.2247C62.7072 78.2247 78.6531 62.2789 78.6531 42.7139C78.6531 33.218 74.9622 24.2955 68.2614 17.5947ZM43.1422 72.2047C37.8389 72.2047 32.6431 70.7713 28.0922 68.0838L27.0172 67.4388L15.8372 70.3772L18.8114 59.4839L18.0947 58.373C15.1476 53.6683 13.583 48.2296 13.5797 42.678C13.5797 26.4097 26.8381 13.1514 43.1064 13.1514C50.9897 13.1514 58.4072 16.233 63.9614 21.823C66.712 24.5602 68.8918 27.8163 70.3742 31.4024C71.8567 34.9886 72.6123 38.8334 72.5972 42.7139C72.6689 58.9822 59.4106 72.2047 43.1422 72.2047ZM59.3389 50.1314C58.4431 49.7014 54.0714 47.5514 53.2831 47.2289C52.4589 46.9422 51.8856 46.7989 51.2764 47.6589C50.6672 48.5547 48.9831 50.5614 48.4814 51.1347C47.9797 51.7439 47.4422 51.8155 46.5464 51.3497C45.6506 50.9197 42.7839 49.9522 39.4156 46.9422C36.7639 44.5772 35.0081 41.6747 34.4706 40.7789C33.9689 39.883 34.3989 39.4172 34.8647 38.9514C35.2589 38.5572 35.7606 37.9122 36.1906 37.4105C36.6206 36.9089 36.7997 36.5147 37.0864 35.9414C37.3731 35.3322 37.2297 34.8305 37.0147 34.4005C36.7997 33.9705 35.0081 29.5989 34.2914 27.8072C33.5747 26.0872 32.8222 26.3022 32.2847 26.2664H30.5647C29.9556 26.2664 29.0239 26.4814 28.1997 27.3772C27.4114 28.273 25.1181 30.423 25.1181 34.7947C25.1181 39.1664 28.3072 43.3947 28.7372 43.968C29.1672 44.5772 35.0081 53.5355 43.8947 57.3697C46.0089 58.3014 47.6572 58.8389 48.9472 59.233C51.0614 59.9139 52.9964 59.8064 54.5372 59.5914C56.2572 59.3405 59.8047 57.4414 60.5214 55.363C61.2739 53.2847 61.2739 51.5289 61.0231 51.1347C60.7722 50.7405 60.2347 50.5614 59.3389 50.1314Z" fill="white"/>
</svg>
