<svg width="187" height="187" viewBox="0 0 187 187" fill="none" xmlns="http://www.w3.org/2000/svg">
<path d="M35.9663 163.619C32.377 163.619 29.3824 162.419 26.9825 160.019C24.5827 157.619 23.3802 154.624 23.375 151.035V35.9521C23.375 32.3679 24.5775 29.3759 26.9825 26.9761C29.3876 24.5763 32.3796 23.3738 35.9585 23.3686H92.1676C93.887 23.3686 95.5284 23.7062 97.092 24.3815C98.6555 25.0568 100.001 25.9632 101.128 27.1008L128.718 54.6911C129.846 55.8234 130.749 57.1688 131.43 58.7271C132.11 60.2855 132.451 61.9269 132.451 63.6515V91.8417C132.451 92.9429 132.077 93.8676 131.329 94.6156C130.581 95.3636 129.653 95.7376 128.547 95.7376C127.44 95.7376 126.516 95.3636 125.773 94.6156C125.03 93.8676 124.659 92.9429 124.659 91.8417V62.3269H93.4922V31.1602H35.9663C34.7664 31.1602 33.6652 31.6589 32.6627 32.6562C31.6601 33.6536 31.1615 34.7522 31.1667 35.9521V151.035C31.1667 152.23 31.6653 153.328 32.6627 154.331C33.66 155.333 34.7586 155.832 35.9585 155.827H105.491C106.593 155.827 107.517 156.201 108.265 156.949C109.013 157.697 109.385 158.624 109.379 159.731C109.374 160.837 109.003 161.762 108.265 162.504C107.528 163.247 106.6 163.619 105.484 163.619H35.9663ZM46.4539 142.036C46.8695 136.909 48.4486 132.197 51.1912 127.902C53.9339 123.606 57.5181 120.203 61.9437 117.694L55.8896 106.997C55.8896 106.965 56.0844 106.126 56.474 104.48C56.9519 104.246 57.435 104.179 57.9232 104.277C58.4063 104.381 58.7777 104.656 59.0375 105.103L65.1383 116.043C67.2421 115.238 69.3484 114.609 71.4574 114.157C73.5663 113.705 75.7272 113.482 77.94 113.487C80.1529 113.492 82.3345 113.708 84.485 114.134C86.6303 114.57 88.7029 115.206 90.7028 116.043L96.7959 105.111C96.8998 105.007 97.6607 104.797 99.0788 104.48C99.5567 104.74 99.884 105.119 100.061 105.617C100.242 106.116 100.227 106.576 100.014 106.997L94.0376 117.694C98.4945 120.214 102.063 123.616 104.743 127.902C107.424 132.197 108.969 136.911 109.379 142.043L46.4539 142.036ZM63.8293 132.608C64.6708 132.608 65.3799 132.291 65.9565 131.657C66.5382 131.029 66.8291 130.294 66.8291 129.452C66.8291 128.611 66.5278 127.878 65.9253 127.255C65.3227 126.632 64.6241 126.317 63.8293 126.312C62.993 126.312 62.258 126.624 61.6243 127.247C61.001 127.881 60.6893 128.618 60.6893 129.46C60.6893 130.301 61.001 131.034 61.6243 131.657C62.2476 132.28 62.9826 132.595 63.8293 132.6M92.152 132.6C92.9883 132.6 93.7208 132.286 94.3493 131.657C94.983 131.029 95.2999 130.294 95.2999 129.452C95.2999 128.611 94.983 127.878 94.3493 127.255C93.7156 126.632 92.9831 126.317 92.152 126.312C91.3209 126.307 90.5859 126.619 89.947 127.247C89.3081 127.876 88.9938 128.613 89.0042 129.46C89.0146 130.307 89.3288 131.039 89.947 131.657C90.5651 132.275 91.3001 132.59 92.152 132.6ZM140.546 148.604V114.625C140.546 113.518 140.92 112.591 141.668 111.843C142.416 111.1 143.343 110.729 144.45 110.729C145.556 110.729 146.481 111.1 147.224 111.843C147.966 112.586 148.34 113.513 148.346 114.625V148.604L162.098 135.047C162.856 134.319 163.75 133.979 164.778 134.026C165.807 134.073 166.7 134.47 167.458 135.218C168.155 135.961 168.518 136.831 168.549 137.828C168.58 138.815 168.217 139.69 167.458 140.454L148.852 159.208C147.59 160.471 146.12 161.102 144.442 161.102C142.764 161.102 141.297 160.471 140.04 159.208L121.433 140.454C120.737 139.747 120.373 138.867 120.342 137.813C120.311 136.758 120.675 135.849 121.433 135.085C122.16 134.228 123.077 133.826 124.184 133.878C125.295 133.93 126.23 134.319 126.989 135.047L140.546 148.604Z" fill="white"/>
</svg>
