<svg width="86" height="86" viewBox="0 0 86 86" fill="none" xmlns="http://www.w3.org/2000/svg">
<path d="M27.9503 7.16699H58.0503C69.517 7.16699 78.8337 16.4837 78.8337 27.9503V58.0503C78.8337 63.5624 76.644 68.8487 72.7464 72.7464C68.8487 76.644 63.5624 78.8337 58.0503 78.8337H27.9503C16.4837 78.8337 7.16699 69.517 7.16699 58.0503V27.9503C7.16699 22.4382 9.35666 17.1519 13.2543 13.2543C17.1519 9.35666 22.4382 7.16699 27.9503 7.16699ZM27.2337 14.3337C23.8124 14.3337 20.5312 15.6928 18.112 18.112C15.6928 20.5312 14.3337 23.8124 14.3337 27.2337V58.767C14.3337 65.8978 20.1028 71.667 27.2337 71.667H58.767C62.1883 71.667 65.4695 70.3079 67.8887 67.8887C70.3079 65.4695 71.667 62.1883 71.667 58.767V27.2337C71.667 20.1028 65.8978 14.3337 58.767 14.3337H27.2337ZM61.8128 19.7087C63.0008 19.7087 64.1401 20.1806 64.9801 21.0206C65.8201 21.8606 66.292 22.9999 66.292 24.1878C66.292 25.3758 65.8201 26.5151 64.9801 27.3551C64.1401 28.1951 63.0008 28.667 61.8128 28.667C60.6249 28.667 59.4856 28.1951 58.6456 27.3551C57.8056 26.5151 57.3337 25.3758 57.3337 24.1878C57.3337 22.9999 57.8056 21.8606 58.6456 21.0206C59.4856 20.1806 60.6249 19.7087 61.8128 19.7087ZM43.0003 25.0837C47.7521 25.0837 52.3093 26.9713 55.6693 30.3313C59.0293 33.6914 60.917 38.2485 60.917 43.0003C60.917 47.7521 59.0293 52.3093 55.6693 55.6693C52.3093 59.0293 47.7521 60.917 43.0003 60.917C38.2485 60.917 33.6914 59.0293 30.3313 55.6693C26.9713 52.3093 25.0837 47.7521 25.0837 43.0003C25.0837 38.2485 26.9713 33.6914 30.3313 30.3313C33.6914 26.9713 38.2485 25.0837 43.0003 25.0837ZM43.0003 32.2503C40.1492 32.2503 37.4149 33.3829 35.3989 35.3989C33.3829 37.4149 32.2503 40.1492 32.2503 43.0003C32.2503 45.8514 33.3829 48.5857 35.3989 50.6017C37.4149 52.6177 40.1492 53.7503 43.0003 53.7503C45.8514 53.7503 48.5857 52.6177 50.6017 50.6017C52.6177 48.5857 53.7503 45.8514 53.7503 43.0003C53.7503 40.1492 52.6177 37.4149 50.6017 35.3989C48.5857 33.3829 45.8514 32.2503 43.0003 32.2503Z" fill="white"/>
</svg>
