<svg width="86" height="86" viewBox="0 0 86 86" fill="none" xmlns="http://www.w3.org/2000/svg">
<path d="M59.4829 20.855C57.034 18.0583 55.6842 14.4673 55.6846 10.75H44.6121V55.1833C44.5285 57.5884 43.5139 59.867 41.7823 61.5384C40.0508 63.2097 37.7378 64.1431 35.3312 64.1417C30.2429 64.1417 26.0146 59.985 26.0146 54.825C26.0146 48.6617 31.9629 44.0392 38.0904 45.9383V34.615C25.7279 32.9667 14.9062 42.57 14.9062 54.825C14.9062 66.7575 24.7962 75.25 35.2954 75.25C46.5471 75.25 55.6846 66.1125 55.6846 54.825V32.2858C60.1745 35.5103 65.5651 37.2403 71.0929 37.2308V26.1583C71.0929 26.1583 64.3562 26.4808 59.4829 20.855Z" fill="white"/>
</svg>
