<svg width="86" height="86" viewBox="0 0 86 86" fill="none" xmlns="http://www.w3.org/2000/svg">
<path d="M58.9929 31.6978L55.087 56.7059C55.0332 57.0506 54.8946 57.3766 54.6836 57.6546C54.4726 57.9325 54.1959 58.1537 53.8783 58.2983C53.5607 58.4429 53.2122 58.5063 52.864 58.483C52.5158 58.4596 52.1789 58.35 51.8835 58.1643L38.8044 49.9692C38.5325 49.7991 38.3031 49.5692 38.1335 49.2971C37.964 49.0249 37.8588 48.7176 37.8259 48.3987C37.7931 48.0797 37.8335 47.7574 37.9441 47.4564C38.0546 47.1554 38.2325 46.8836 38.464 46.6618L49.3215 36.2558C49.4433 36.1411 49.3 35.9512 49.1566 36.0372L33.4186 45.4542C32.4832 46.0167 31.3723 46.212 30.3011 46.0024L24.6036 44.9024C22.5468 44.5046 22.2637 41.6809 24.1951 40.8819L54.6606 28.2864C55.1796 28.0705 55.7468 27.9969 56.3038 28.0732C56.8607 28.1495 57.3872 28.373 57.829 28.7206C58.2707 29.0682 58.6118 29.5273 58.8171 30.0506C59.0223 30.5739 59.0842 31.1425 58.9965 31.6978" fill="white"/>
<path fill-rule="evenodd" clip-rule="evenodd" d="M43.0001 6.11328C22.6289 6.11328 6.11328 22.6289 6.11328 43.0001C6.11328 63.3714 22.6289 79.887 43.0001 79.887C63.3714 79.887 79.887 63.3714 79.887 43.0001C79.887 22.6289 63.3714 6.11328 43.0001 6.11328ZM12.4343 43.0001C12.4343 38.9862 13.2249 35.0115 14.761 31.3031C16.297 27.5947 18.5485 24.2251 21.3868 21.3868C24.2251 18.5485 27.5947 16.297 31.3031 14.761C35.0115 13.2249 38.9862 12.4343 43.0001 12.4343C47.0141 12.4343 50.9887 13.2249 54.6972 14.761C58.4056 16.297 61.7751 18.5485 64.6134 21.3868C67.4517 24.2251 69.7032 27.5947 71.2393 31.3031C72.7753 35.0115 73.566 38.9862 73.566 43.0001C73.566 51.1067 70.3456 58.8812 64.6134 64.6134C58.8812 70.3456 51.1067 73.566 43.0001 73.566C34.8936 73.566 27.119 70.3456 21.3868 64.6134C15.6546 58.8812 12.4343 51.1067 12.4343 43.0001Z" fill="white"/>
</svg>
