<svg width="75" height="45" viewBox="0 0 75 45" fill="none" xmlns="http://www.w3.org/2000/svg">
<path d="M0 44.4353C0.495295 38.4088 2.37742 32.8707 5.64636 27.8212C8.91531 22.7716 13.1872 18.7723 18.4621 15.8231L11.2463 3.24809C11.2463 3.21145 11.4785 2.22535 11.9428 0.289791C12.5124 0.0150262 13.0882 -0.0643502 13.6701 0.0516614C14.2459 0.173779 14.6886 0.497394 14.9981 1.0225L22.2697 13.8815C24.7771 12.9351 27.2876 12.1963 29.8013 11.665C32.3149 11.1338 34.8904 10.8713 37.5279 10.8774C40.1653 10.8835 42.7656 11.1369 45.3288 11.6376C47.8857 12.1505 50.356 12.8984 52.7396 13.8815L60.0019 1.03167C60.1257 0.909548 61.0327 0.662249 62.7229 0.289791C63.2925 0.595084 63.6825 1.04082 63.893 1.62698C64.1097 2.21315 64.0911 2.75351 63.8373 3.24809L56.7143 15.8231C62.0264 18.7845 66.2797 22.7838 69.4744 27.8212C72.669 32.8707 74.5109 38.4118 75 44.4444L0 44.4353ZM20.7095 33.3531C21.7125 33.3531 22.5576 32.9807 23.2448 32.2357C23.9382 31.4969 24.2849 30.6329 24.2849 29.6438C24.2849 28.6546 23.9258 27.7937 23.2077 27.061C22.4895 26.3283 21.6568 25.9589 20.7095 25.9528C19.7127 25.9528 18.8367 26.3191 18.0813 27.0519C17.3384 27.7968 16.9669 28.6638 16.9669 29.6529C16.9669 30.6421 17.3384 31.503 18.0813 32.2357C18.8243 32.9685 19.7004 33.3378 20.7095 33.344M54.4669 33.344C55.4637 33.344 56.3367 32.9746 57.0858 32.2357C57.8411 31.4969 58.2188 30.6329 58.2188 29.6438C58.2188 28.6546 57.8411 27.7937 57.0858 27.061C56.3305 26.3283 55.4575 25.9589 54.4669 25.9528C53.4763 25.9467 52.6003 26.313 51.8388 27.0519C51.0773 27.7907 50.7027 28.6577 50.7151 29.6529C50.7275 30.6482 51.102 31.5091 51.8388 32.2357C52.5755 32.9623 53.4516 33.3317 54.4669 33.344Z" fill="white"/>
</svg>
