<svg width="24" height="24" viewBox="0 0 24 24" fill="none" xmlns="http://www.w3.org/2000/svg">
<rect x="0.703301" y="0.703301" width="22.0368" height="22.0368" rx="0.703301" fill="#272208" stroke="#EDC702" stroke-width="1.4066"/>
<path fill-rule="evenodd" clip-rule="evenodd" d="M16.2433 7.11541C16.3721 7.03792 16.526 7.01335 16.6725 7.04684C16.8191 7.08034 16.9469 7.16929 17.0293 7.29505L17.6048 8.17288C17.6799 8.28756 17.712 8.42506 17.6955 8.5611C17.679 8.69714 17.615 8.82299 17.5147 8.91643L17.513 8.91875L17.5049 8.92631L17.4717 8.95712L17.3409 9.08211C16.6172 9.78418 15.9153 10.5085 15.2364 11.254C13.9592 12.6586 12.4425 14.4968 11.4216 16.2804C11.1368 16.778 10.4409 16.885 10.0281 16.4553L6.25811 12.5382C6.20408 12.4821 6.1619 12.4156 6.13406 12.3428C6.10622 12.27 6.0933 12.1924 6.09607 12.1145C6.09884 12.0367 6.11723 11.9601 6.15016 11.8895C6.18309 11.8189 6.22988 11.7556 6.28776 11.7034L7.4272 10.6756C7.52733 10.5853 7.65573 10.5326 7.79041 10.5266C7.92509 10.5205 8.05769 10.5615 8.16551 10.6424L10.0892 12.0848C13.0942 9.12164 14.7981 7.98453 16.2433 7.11541Z" fill="#EDC702"/>
</svg>
