<svg width="30" height="30" viewBox="0 0 30 30" fill="none" xmlns="http://www.w3.org/2000/svg">
<circle cx="15" cy="15" r="14.7" fill="#344865" stroke="#C3CFE0" stroke-width="0.6"/>
<mask id="mask0_707_2493" style="mask-type:alpha" maskUnits="userSpaceOnUse" x="0" y="0" width="30" height="30">
<circle cx="15" cy="15" r="15" fill="#D9D9D9"/>
</mask>
<g mask="url(#mask0_707_2493)">
<path d="M14.9996 18C13.4321 18 12.0902 17.4125 10.974 16.2375C9.85773 15.0625 9.29961 13.65 9.29961 12C9.29961 10.35 9.85773 8.9375 10.974 7.7625C12.0902 6.5875 13.4321 6 14.9996 6C16.5671 6 17.909 6.5875 19.0252 7.7625C20.1415 8.9375 20.6996 10.35 20.6996 12C20.6996 13.65 20.1415 15.0625 19.0252 16.2375C17.909 17.4125 16.5671 18 14.9996 18ZM3.59961 30V25.8C3.59961 24.95 3.80766 24.169 4.22376 23.457C4.63986 22.745 5.19181 22.201 5.87961 21.825C7.35211 21.05 8.84836 20.469 10.3684 20.082C11.8884 19.695 13.4321 19.501 14.9996 19.5C16.5671 19.499 18.1109 19.693 19.6309 20.082C21.1509 20.471 22.6471 21.052 24.1196 21.825C24.8084 22.2 25.3608 22.744 25.7769 23.457C26.193 24.17 26.4006 24.951 26.3996 25.8V30H3.59961Z" fill="#D6D6D6"/>
</g>
</svg>
